<svg width="206" height="25" viewBox="0 0 206 25" fill="none" xmlns="http://www.w3.org/2000/svg">
<path d="M13.9134 19.74H5.18336L3.68336 24H0.113361L7.58336 3.12H11.5434L19.0134 24H15.4134L13.9134 19.74ZM12.9534 16.95L9.56336 7.26L6.14336 16.95H12.9534ZM20.8513 7.53C20.9713 5.67 21.6813 4.22 22.9813 3.18C24.3013 2.14 25.9813 1.62 28.0213 1.62C29.4213 1.62 30.6313 1.87 31.6513 2.37C32.6713 2.87 33.4413 3.55 33.9613 4.41C34.4813 5.27 34.7413 6.24 34.7413 7.32C34.7413 8.56 34.4113 9.62 33.7513 10.5C33.0913 11.38 32.3013 11.97 31.3813 12.27V12.39C32.5613 12.75 33.4813 13.41 34.1413 14.37C34.8013 15.31 35.1313 16.52 35.1313 18C35.1313 19.18 34.8613 20.23 34.3213 21.15C33.7813 22.07 32.9813 22.8 31.9213 23.34C30.8613 23.86 29.5913 24.12 28.1113 24.12C25.9513 24.12 24.1713 23.57 22.7713 22.47C21.3913 21.35 20.6513 19.75 20.5513 17.67H23.8513C23.9313 18.73 24.3413 19.6 25.0813 20.28C25.8213 20.94 26.8213 21.27 28.0813 21.27C29.3013 21.27 30.2413 20.94 30.9013 20.28C31.5613 19.6 31.8913 18.73 31.8913 17.67C31.8913 16.27 31.4413 15.28 30.5413 14.7C29.6613 14.1 28.3013 13.8 26.4613 13.8H25.6813V10.98H26.4913C28.1113 10.96 29.3413 10.69 30.1813 10.17C31.0413 9.65 31.4713 8.83 31.4713 7.71C31.4713 6.75 31.1613 5.99 30.5413 5.43C29.9213 4.85 29.0413 4.56 27.9013 4.56C26.7813 4.56 25.9113 4.85 25.2913 5.43C24.6713 5.99 24.3013 6.69 24.1813 7.53H20.8513Z" fill="#3EA8A2"/>
<path d="M58.6368 3.15V5.94H53.0868V24H49.6668V5.94H44.0868V3.15H58.6368ZM64.6204 9.87C65.1204 9.03 65.7804 8.38 66.6004 7.92C67.4404 7.44 68.4304 7.2 69.5704 7.2V10.74H68.7004C67.3604 10.74 66.3404 11.08 65.6404 11.76C64.9604 12.44 64.6204 13.62 64.6204 15.3V24H61.2004V7.47H64.6204V9.87ZM70.6741 15.66C70.6741 14 71.0141 12.53 71.6941 11.25C72.3941 9.97 73.3341 8.98 74.5141 8.28C75.7141 7.56 77.0341 7.2 78.4741 7.2C79.7741 7.2 80.9041 7.46 81.8641 7.98C82.8441 8.48 83.6241 9.11 84.2041 9.87V7.47H87.6541V24H84.2041V21.54C83.6241 22.32 82.8341 22.97 81.8341 23.49C80.8341 24.01 79.6941 24.27 78.4141 24.27C76.9941 24.27 75.6941 23.91 74.5141 23.19C73.3341 22.45 72.3941 21.43 71.6941 20.13C71.0141 18.81 70.6741 17.32 70.6741 15.66ZM84.2041 15.72C84.2041 14.58 83.9641 13.59 83.4841 12.75C83.0241 11.91 82.4141 11.27 81.6541 10.83C80.8941 10.39 80.0741 10.17 79.1941 10.17C78.3141 10.17 77.4941 10.39 76.7341 10.83C75.9741 11.25 75.3541 11.88 74.8741 12.72C74.4141 13.54 74.1841 14.52 74.1841 15.66C74.1841 16.8 74.4141 17.8 74.8741 18.66C75.3541 19.52 75.9741 20.18 76.7341 20.64C77.5141 21.08 78.3341 21.3 79.1941 21.3C80.0741 21.3 80.8941 21.08 81.6541 20.64C82.4141 20.2 83.0241 19.56 83.4841 18.72C83.9641 17.86 84.2041 16.86 84.2041 15.72ZM99.5861 7.2C100.886 7.2 102.046 7.47 103.066 8.01C104.106 8.55 104.916 9.35 105.496 10.41C106.076 11.47 106.366 12.75 106.366 14.25V24H102.976V14.76C102.976 13.28 102.606 12.15 101.866 11.37C101.126 10.57 100.116 10.17 98.8361 10.17C97.5561 10.17 96.5361 10.57 95.7761 11.37C95.0361 12.15 94.6661 13.28 94.6661 14.76V24H91.2461V7.47H94.6661V9.36C95.2261 8.68 95.9361 8.15 96.7961 7.77C97.6761 7.39 98.6061 7.2 99.5861 7.2ZM115.829 24.27C114.529 24.27 113.359 24.04 112.319 23.58C111.299 23.1 110.489 22.46 109.889 21.66C109.289 20.84 108.969 19.93 108.929 18.93H112.469C112.529 19.63 112.859 20.22 113.459 20.7C114.079 21.16 114.849 21.39 115.769 21.39C116.729 21.39 117.469 21.21 117.989 20.85C118.529 20.47 118.799 19.99 118.799 19.41C118.799 18.79 118.499 18.33 117.899 18.03C117.319 17.73 116.389 17.4 115.109 17.04C113.869 16.7 112.859 16.37 112.079 16.05C111.299 15.73 110.619 15.24 110.039 14.58C109.479 13.92 109.199 13.05 109.199 11.97C109.199 11.09 109.459 10.29 109.979 9.57C110.499 8.83 111.239 8.25 112.199 7.83C113.179 7.41 114.299 7.2 115.559 7.2C117.439 7.2 118.949 7.68 120.089 8.64C121.249 9.58 121.869 10.87 121.949 12.51H118.529C118.469 11.77 118.169 11.18 117.629 10.74C117.089 10.3 116.359 10.08 115.439 10.08C114.539 10.08 113.849 10.25 113.369 10.59C112.889 10.93 112.649 11.38 112.649 11.94C112.649 12.38 112.809 12.75 113.129 13.05C113.449 13.35 113.839 13.59 114.299 13.77C114.759 13.93 115.439 14.14 116.339 14.4C117.539 14.72 118.519 15.05 119.279 15.39C120.059 15.71 120.729 16.19 121.289 16.83C121.849 17.47 122.139 18.32 122.159 19.38C122.159 20.32 121.899 21.16 121.379 21.9C120.859 22.64 120.119 23.22 119.159 23.64C118.219 24.06 117.109 24.27 115.829 24.27ZM131.884 10.26H128.824V24H125.374V10.26H123.424V7.47H125.374V6.3C125.374 4.4 125.874 3.02 126.874 2.16C127.894 1.28 129.484 0.84 131.644 0.84V3.69C130.604 3.69 129.874 3.89 129.454 4.29C129.034 4.67 128.824 5.34 128.824 6.3V7.47H131.884V10.26ZM141.185 24.27C139.625 24.27 138.215 23.92 136.955 23.22C135.695 22.5 134.705 21.5 133.985 20.22C133.265 18.92 132.905 17.42 132.905 15.72C132.905 14.04 133.275 12.55 134.015 11.25C134.755 9.95 135.765 8.95 137.045 8.25C138.325 7.55 139.755 7.2 141.335 7.2C142.915 7.2 144.345 7.55 145.625 8.25C146.905 8.95 147.915 9.95 148.655 11.25C149.395 12.55 149.765 14.04 149.765 15.72C149.765 17.4 149.385 18.89 148.625 20.19C147.865 21.49 146.825 22.5 145.505 23.22C144.205 23.92 142.765 24.27 141.185 24.27ZM141.185 21.3C142.065 21.3 142.885 21.09 143.645 20.67C144.425 20.25 145.055 19.62 145.535 18.78C146.015 17.94 146.255 16.92 146.255 15.72C146.255 14.52 146.025 13.51 145.565 12.69C145.105 11.85 144.495 11.22 143.735 10.8C142.975 10.38 142.155 10.17 141.275 10.17C140.395 10.17 139.575 10.38 138.815 10.8C138.075 11.22 137.485 11.85 137.045 12.69C136.605 13.51 136.385 14.52 136.385 15.72C136.385 17.5 136.835 18.88 137.735 19.86C138.655 20.82 139.805 21.3 141.185 21.3ZM155.666 9.87C156.166 9.03 156.826 8.38 157.646 7.92C158.486 7.44 159.476 7.2 160.616 7.2V10.74H159.746C158.406 10.74 157.386 11.08 156.686 11.76C156.006 12.44 155.666 13.62 155.666 15.3V24H152.246V7.47H155.666V9.87ZM182.869 7.2C184.169 7.2 185.329 7.47 186.349 8.01C187.389 8.55 188.199 9.35 188.779 10.41C189.379 11.47 189.679 12.75 189.679 14.25V24H186.289V14.76C186.289 13.28 185.919 12.15 185.179 11.37C184.439 10.57 183.429 10.17 182.149 10.17C180.869 10.17 179.849 10.57 179.089 11.37C178.349 12.15 177.979 13.28 177.979 14.76V24H174.589V14.76C174.589 13.28 174.219 12.15 173.479 11.37C172.739 10.57 171.729 10.17 170.449 10.17C169.169 10.17 168.149 10.57 167.389 11.37C166.649 12.15 166.279 13.28 166.279 14.76V24H162.859V7.47H166.279V9.36C166.839 8.68 167.549 8.15 168.409 7.77C169.269 7.39 170.189 7.2 171.169 7.2C172.489 7.2 173.669 7.48 174.709 8.04C175.749 8.6 176.549 9.41 177.109 10.47C177.609 9.47 178.389 8.68 179.449 8.1C180.509 7.5 181.649 7.2 182.869 7.2ZM199.131 24.27C197.831 24.27 196.661 24.04 195.621 23.58C194.601 23.1 193.791 22.46 193.191 21.66C192.591 20.84 192.271 19.93 192.231 18.93H195.771C195.831 19.63 196.161 20.22 196.761 20.7C197.381 21.16 198.151 21.39 199.071 21.39C200.031 21.39 200.771 21.21 201.291 20.85C201.831 20.47 202.101 19.99 202.101 19.41C202.101 18.79 201.801 18.33 201.201 18.03C200.621 17.73 199.691 17.4 198.411 17.04C197.171 16.7 196.161 16.37 195.381 16.05C194.601 15.73 193.921 15.24 193.341 14.58C192.781 13.92 192.501 13.05 192.501 11.97C192.501 11.09 192.761 10.29 193.281 9.57C193.801 8.83 194.541 8.25 195.501 7.83C196.481 7.41 197.601 7.2 198.861 7.2C200.741 7.2 202.251 7.68 203.391 8.64C204.551 9.58 205.171 10.87 205.251 12.51H201.831C201.771 11.77 201.471 11.18 200.931 10.74C200.391 10.3 199.661 10.08 198.741 10.08C197.841 10.08 197.151 10.25 196.671 10.59C196.191 10.93 195.951 11.38 195.951 11.94C195.951 12.38 196.111 12.75 196.431 13.05C196.751 13.35 197.141 13.59 197.601 13.77C198.061 13.93 198.741 14.14 199.641 14.4C200.841 14.72 201.821 15.05 202.581 15.39C203.361 15.71 204.031 16.19 204.591 16.83C205.151 17.47 205.441 18.32 205.461 19.38C205.461 20.32 205.201 21.16 204.681 21.9C204.161 22.64 203.421 23.22 202.461 23.64C201.521 24.06 200.411 24.27 199.131 24.27Z" fill="black"/>
</svg>
