<svg width="143" height="142" viewBox="0 0 143 142" fill="none" xmlns="http://www.w3.org/2000/svg">
<rect width="143" height="142" rx="40" fill="#0C0F17"/>
<path d="M109.174 46.3721L74.1132 25.8117C73.5325 25.4419 72.734 25.2939 71.8629 25.2939C70.9919 25.2939 70.1934 25.5158 69.6127 25.8117L34.7701 46.446C33.536 47.1856 32.665 49.0346 32.665 50.4398V91.6346C32.665 92.4481 32.8102 93.4096 33.3909 94.2231L110.916 48.3689C110.48 47.4814 109.827 46.8158 109.174 46.3721Z" fill="#659AD3"/>
<path d="M33.1731 94.1491C33.536 94.7408 34.0442 95.2585 34.5523 95.5543L69.5401 116.189C70.1208 116.558 70.9193 116.706 71.7904 116.706C72.6614 116.706 73.4599 116.485 74.0406 116.189L108.883 95.5543C110.117 94.8147 110.988 92.9658 110.988 91.5606V50.3658C110.988 49.7001 110.916 48.9605 110.553 48.2949L33.1731 94.1491Z" fill="#03599C"/>
<path d="M87.3243 79.9491C84.2756 85.422 78.4685 89.12 71.8629 89.12C62.0634 89.12 54.0786 80.9845 54.0786 71.0002C54.0786 61.0158 62.0634 52.8804 71.8629 52.8804C78.4685 52.8804 84.2756 56.5783 87.3243 62.1252L96.7609 56.5783C91.8248 47.7772 82.5335 41.7866 71.8629 41.7866C56.0385 41.7866 43.1903 54.8772 43.1903 71.0002C43.1903 87.1231 56.0385 100.214 71.8629 100.214C82.4609 100.214 91.7522 94.297 96.6883 85.57L87.3243 79.9491Z" fill="white"/>
</svg>
