<svg width="42" height="46" viewBox="0 0 42 46" fill="none" xmlns="http://www.w3.org/2000/svg">
<path d="M24.4709 0.977041L38.5334 9.26871L38.7334 9.39996L38.9272 9.56246L39.148 9.71662C39.9293 10.3019 40.5735 11.0507 41.0355 11.9107C41.4975 12.7707 41.7663 13.7212 41.823 14.6958L41.8334 15.1208V30.2958C41.8334 32.7437 40.4938 34.9958 38.4522 36.1145L24.2772 45.077C22.2355 46.1979 19.7647 46.1979 17.6105 45.0104L3.66258 36.1833C2.60633 35.6046 1.72476 34.753 1.10985 33.7174C0.494945 32.6818 0.169248 31.5002 0.166748 30.2958V15.1187C0.166748 12.8145 1.35425 10.6854 3.24175 9.48329L17.7209 0.945791C19.8042 -0.204209 22.3334 -0.204209 24.4709 0.977041ZM21.0001 12.5833C19.3425 12.5833 17.7528 13.2418 16.5807 14.4139C15.4086 15.586 14.7501 17.1757 14.7501 18.8333V27.1666C14.7501 28.8242 15.4086 30.4139 16.5807 31.586C17.7528 32.7581 19.3425 33.4166 21.0001 33.4166C22.6577 33.4166 24.2474 32.7581 25.4195 31.586C26.5916 30.4139 27.2501 28.8242 27.2501 27.1666C27.2495 26.6356 27.0462 26.1249 26.6816 25.7388C26.3171 25.3527 25.8189 25.1203 25.2888 25.0892C24.7588 25.0581 24.2368 25.2305 23.8296 25.5713C23.4224 25.9122 23.1607 26.3956 23.098 26.9229L23.0834 27.1666C23.0834 27.7192 22.8639 28.2491 22.4732 28.6398C22.0825 29.0305 21.5526 29.25 21.0001 29.25C20.4475 29.25 19.9176 29.0305 19.5269 28.6398C19.1362 28.2491 18.9167 27.7192 18.9167 27.1666V18.8333C18.9173 18.3023 19.1207 17.7916 19.4852 17.4054C19.8497 17.0193 20.3479 16.787 20.878 16.7558C21.4081 16.7247 21.93 16.8972 22.3372 17.238C22.7444 17.5788 23.0061 18.0623 23.0688 18.5895L23.0834 18.8333C23.0834 19.3858 23.3029 19.9157 23.6936 20.3064C24.0843 20.6971 24.6142 20.9166 25.1667 20.9166C25.7193 20.9166 26.2492 20.6971 26.6399 20.3064C27.0306 19.9157 27.2501 19.3858 27.2501 18.8333C27.2501 17.1757 26.5916 15.586 25.4195 14.4139C24.2474 13.2418 22.6577 12.5833 21.0001 12.5833Z" fill="url(#paint0_linear_129_3)"/>
<defs>
<linearGradient id="paint0_linear_129_3" x1="1.85117e-07" y1="-2.4846e-07" x2="42" y2="46" gradientUnits="userSpaceOnUse">
<stop offset="0.146613" stop-color="#FF0000"/>
<stop offset="0.59" stop-color="#0A0065"/>
<stop offset="0.856094" stop-color="#C341FF"/>
</linearGradient>
</defs>
</svg>
