<svg width="143" height="142" viewBox="0 0 143 142" fill="none" xmlns="http://www.w3.org/2000/svg">
<rect width="143" height="142" rx="40" fill="#0C0F17"/>
<g clip-path="url(#clip0_15_302)">
<path d="M112.509 50.3392C112.508 48.6871 112.176 47.227 111.506 45.9739C110.847 44.7416 109.861 43.7088 108.538 42.8922C97.6187 36.1805 86.6878 29.4893 75.7717 22.7708C72.8287 20.9596 69.9755 21.0255 67.054 22.863C62.7076 25.5954 40.9468 38.8848 34.462 42.8884C31.7917 44.5364 30.4921 47.0583 30.4915 50.3358C30.4873 63.8339 30.4915 77.3314 30.4873 90.8295C30.4873 92.445 30.8055 93.8771 31.4463 95.1115C32.1051 96.381 33.1051 97.4422 34.4585 98.2772C40.9436 102.281 62.7073 115.57 67.0527 118.302C69.9752 120.14 72.8287 120.206 75.7727 118.394C86.6891 111.676 97.6203 104.985 108.542 98.2731C109.895 97.4384 110.895 96.3765 111.554 95.108C112.194 93.8737 112.513 92.442 112.513 90.8254C112.513 90.8254 112.513 63.8373 112.509 50.3392Z" fill="#6A56A2"/>
<path d="M71.6256 70.4514L31.446 95.1116C32.1051 96.3811 33.1051 97.4422 34.4585 98.2773C40.9436 102.281 62.7073 115.57 67.0527 118.302C69.9752 120.141 72.8287 120.206 75.7727 118.395C86.6891 111.676 97.6203 104.985 108.542 98.2732C109.895 97.4385 110.895 96.3766 111.554 95.1081L71.6256 70.4514Z" fill="#310E7B"/>
<path d="M59.7249 77.756C62.0629 82.1066 66.458 85.0411 71.5 85.0411C76.5731 85.0411 80.9931 82.0697 83.3193 77.672L71.6256 70.4514L59.7249 77.756Z" fill="#1F0D67"/>
<path d="M112.509 50.3391C112.508 48.6871 112.176 47.227 111.506 45.9739L71.6256 70.4513L111.554 95.108C112.194 93.8737 112.512 92.4419 112.513 90.8254C112.513 90.8254 112.513 63.8373 112.509 50.3391Z" fill="#463588"/>
<path d="M110.313 72.2137H107.193V75.5404H104.072V72.2137H100.952V68.8885H104.072V65.5625H107.193V68.8885H110.313V72.2137ZM71.5 41.5469C81.476 41.5469 90.1986 47.2643 94.9445 55.7923L95.0868 56.0516L83.2312 63.3288C80.8817 59.0223 76.5096 56.1243 71.5 56.1243C64.0088 56.1243 57.936 62.5976 57.936 70.5825C57.9335 73.0993 58.5503 75.5727 59.7249 77.756C62.0629 82.1066 66.458 85.0411 71.5 85.0411C76.5173 85.0411 80.8961 82.1346 83.2421 77.8164L83.3194 77.672L95.1576 84.983C90.4636 93.7255 81.6273 99.6185 71.5 99.6185C61.3913 99.6185 52.5688 93.7491 47.8684 85.0322C45.5736 80.7769 44.2605 75.8433 44.2605 70.5825C44.2605 54.5471 56.4557 41.5469 71.5 41.5469ZM95.808 65.5622V68.8881H98.9279V72.2137H95.808V75.5404H92.6879V72.2137H89.5677V68.8885H92.6879V65.5625H95.808V65.5622Z" fill="white"/>
</g>
<defs>
<clipPath id="clip0_15_302">
<rect width="82.0254" height="98.3646" fill="white" transform="translate(30.4873 21.448)"/>
</clipPath>
</defs>
</svg>
