<svg width="143" height="142" viewBox="0 0 143 142" fill="none" xmlns="http://www.w3.org/2000/svg">
<g clip-path="url(#clip0_15_109)">
<path d="M109.484 0H33.5156C15.0055 0 0 14.9005 0 33.2812V108.719C0 127.099 15.0055 142 33.5156 142H109.484C127.995 142 143 127.099 143 108.719V33.2812C143 14.9005 127.995 0 109.484 0Z" fill="#0277BD"/>
<path d="M30.0261 56.9392L31.6248 74.6571H71.5536V56.9392H30.0261ZM71.5531 21.0781H26.8125L28.4347 38.796H71.5531V21.0781ZM71.5531 121.388V102.954L71.4749 102.975L51.6034 97.6472L50.3332 83.516H32.4219L34.9216 111.336L71.471 121.411L71.5531 121.388Z" fill="#EBEBEB"/>
<path d="M93.4628 74.6571L91.3915 97.6355L71.4916 102.969V121.402L108.07 111.336L108.338 108.342L112.531 61.6973L112.966 56.9392L116.188 21.0781H71.4916V38.796H96.6334L95.0101 56.9392H71.4916V74.6571H93.4628Z" fill="white"/>
</g>
<defs>
<clipPath id="clip0_15_109">
<rect width="143" height="142" fill="white"/>
</clipPath>
</defs>
</svg>
