<svg width="143" height="142" viewBox="0 0 143 142" fill="none" xmlns="http://www.w3.org/2000/svg">
<g clip-path="url(#clip0_15_95)">
<path d="M109.484 0H33.5156C15.0055 0 0 14.9005 0 33.2812V108.719C0 127.099 15.0055 142 33.5156 142H109.484C127.995 142 143 127.099 143 108.719V33.2812C143 14.9005 127.995 0 109.484 0Z" fill="#242938"/>
<path d="M127.359 101.473C125.733 102.084 123.938 102.083 122.313 101.469C120.687 100.856 119.345 99.672 118.539 98.142C113.476 90.6165 107.886 83.4305 102.513 76.0904L100.183 73.0063C93.7845 81.5185 87.3864 89.6913 81.5474 98.173C80.7869 99.6353 79.517 100.773 77.9742 101.375C76.4314 101.976 74.7211 102 73.1618 101.442L97.1702 69.4596L74.8387 40.5604C76.4462 39.984 78.2048 39.976 79.8175 40.5379C81.4302 41.0998 82.7983 42.197 83.6908 43.6445C88.8773 51.1705 94.6236 58.3564 100.338 65.9745C106.084 58.418 111.768 51.201 117.079 43.7371C117.844 42.2985 119.114 41.1894 120.649 40.6207C122.184 40.052 123.876 40.0635 125.403 40.653L116.737 52.0646C112.855 57.1533 109.035 62.2731 104.997 67.2386C104.672 67.5278 104.411 67.882 104.233 68.2779C104.055 68.6739 103.962 69.1027 103.962 69.5364C103.962 69.9702 104.055 70.399 104.233 70.795C104.411 71.1909 104.672 71.5451 104.997 71.8342C112.42 81.6112 119.781 91.4186 127.359 101.473ZM15.6406 69.0586C16.2931 65.9745 16.6964 62.6126 17.5974 59.4669C22.9705 40.4994 44.8668 32.6034 59.9304 44.3545C68.7512 51.2326 70.9565 60.9784 70.5219 71.9579H20.8277C20.02 91.5733 34.2759 103.416 52.5073 97.3715C55.4647 96.3209 58.1121 94.5555 60.2105 92.2348C62.309 89.914 63.7925 87.1109 64.5271 84.0784C65.4901 80.9943 67.043 80.4702 69.9935 81.3643C69.5076 85.119 68.1708 88.7155 66.0836 91.8833C63.9964 95.0511 61.2131 97.7077 57.9429 99.6535C52.54 102.588 46.3411 103.75 40.2327 102.975C34.1243 102.199 28.4192 99.5254 23.9335 95.3358C19.4957 90.3809 16.8123 84.1202 16.2931 77.5092C16.2931 76.4609 15.8892 75.412 15.6719 74.4252C15.6514 72.6364 15.6409 70.8475 15.6406 69.0586ZM20.8897 67.7323H65.8319C65.5521 53.5146 56.514 43.4292 44.4635 43.3372C31.0461 43.1519 21.4489 53.0209 20.8584 67.6707L20.8897 67.7323Z" fill="white"/>
</g>
<defs>
<clipPath id="clip0_15_95">
<rect width="143" height="142" fill="white"/>
</clipPath>
</defs>
</svg>
