<svg width="143" height="142" viewBox="0 0 143 142" fill="none" xmlns="http://www.w3.org/2000/svg">
<path d="M109.484 0H33.5156C15.0055 0 0 14.9005 0 33.2812V108.719C0 127.099 15.0055 142 33.5156 142H109.484C127.995 142 143 127.099 143 108.719V33.2812C143 14.9005 127.995 0 109.484 0Z" fill="#242938"/>
<mask id="mask0_15_138" style="mask-type:luminance" maskUnits="userSpaceOnUse" x="34" y="15" width="75" height="112">
<path d="M34.0742 15.5312H108.568V126.469H34.0742V15.5312Z" fill="white"/>
</mask>
<g mask="url(#mask0_15_138)">
<path d="M52.7018 126.469C62.9799 126.469 71.3214 118.186 71.3214 107.979V89.4895H52.7018C42.4236 89.4895 34.0816 97.7732 34.0816 107.979C34.0816 118.186 42.4236 126.469 52.7018 126.469Z" fill="#0ACF83"/>
<path d="M34.0816 70.9999C34.0816 60.7936 42.4236 52.5105 52.7018 52.5105H71.3214V89.4893H52.7018C42.4236 89.4893 34.0816 81.2061 34.0816 70.9999Z" fill="#A259FF"/>
<path d="M34.0816 34.0206C34.0816 23.8144 42.4236 15.5312 52.7018 15.5312H71.3214V52.5106H52.7018C42.4236 52.5106 34.0816 44.2269 34.0816 34.0206Z" fill="#F24E1E"/>
<path d="M71.3213 15.5312H89.9409C100.219 15.5312 108.561 23.8144 108.561 34.0206C108.561 44.2269 100.219 52.5106 89.9409 52.5106H71.3213V15.5312Z" fill="#FF7262"/>
<path d="M108.561 70.9999C108.561 81.2061 100.219 89.4893 89.9409 89.4893C79.6628 89.4893 71.3213 81.2061 71.3213 70.9999C71.3213 60.7936 79.6628 52.5105 89.9409 52.5105C100.219 52.5105 108.561 60.7936 108.561 70.9999Z" fill="#1ABCFE"/>
</g>
</svg>
