<svg width="143" height="142" viewBox="0 0 143 142" fill="none" xmlns="http://www.w3.org/2000/svg">
<rect width="143" height="142" rx="40" fill="#0C0F17"/>
<path d="M41.3212 98.0316L41.8302 97.2867L65.8444 49.4656L65.8953 48.9595L55.3105 28.0885C55.1167 27.7068 54.8135 27.3988 54.4438 27.2079C54.0741 27.0171 53.6566 26.9531 53.2503 27.0251C52.8441 27.097 52.4697 27.3012 52.1801 27.6088C51.8904 27.9164 51.7003 28.3118 51.6365 28.7391L41.3212 98.0316Z" fill="#FFC24A"/>
<path d="M41.6206 97.466L42.0039 96.6802L65.7696 49.3557L55.2117 28.4029C55.0376 28.0386 54.7557 27.7432 54.4083 27.5611C54.0608 27.379 53.6665 27.32 53.2844 27.393C52.9024 27.4659 52.5531 27.6668 52.2889 27.9656C52.0248 28.2644 51.86 28.645 51.8192 29.0504L41.6206 97.466Z" fill="#FFA712"/>
<path d="M73.6116 64.7448L81.4926 56.2581L73.6086 40.476C73.4351 40.1363 73.1771 39.8524 72.862 39.6545C72.547 39.4566 72.1867 39.3521 71.8195 39.3521C71.4524 39.3521 71.0921 39.4566 70.777 39.6545C70.462 39.8524 70.204 40.1363 70.0304 40.476L65.8175 48.9061V49.6259L73.6116 64.7448Z" fill="#F4BD62"/>
<path d="M73.4709 64.3992L81.1333 56.1639L73.4709 40.825C73.3455 40.4929 73.1312 40.2061 72.854 39.999C72.5768 39.7919 72.2484 39.6734 71.9085 39.6578C71.5686 39.6422 71.2316 39.7301 70.9382 39.911C70.6449 40.0919 70.4076 40.358 70.255 40.6772L66.0211 49.2551L65.8953 49.692L73.4709 64.3992Z" fill="#FFA50E"/>
<path d="M41.3272 98.035L41.5577 97.7898L42.3931 97.4346L73.1146 65.3045L73.5038 64.1918L65.8414 48.8591L41.3272 98.035Z" fill="#F6820C"/>
<path d="M74.5937 114.238L102.405 97.9594L94.4578 46.6273C94.4009 46.2655 94.25 45.9271 94.0219 45.6493C93.7937 45.3715 93.4971 45.1651 93.1645 45.0528C92.8319 44.9404 92.4762 44.9264 92.1366 45.0123C91.7969 45.0982 91.4863 45.2807 91.239 45.5398L41.3212 98.0317L68.9675 114.235C69.827 114.739 70.7949 115.003 71.7791 115.003C72.7634 115.003 73.7313 114.739 74.5907 114.235" fill="#FDE068"/>
<path d="M102.15 97.8243L94.2692 46.8789C94.2553 46.5327 94.1439 46.1987 93.9491 45.9191C93.7543 45.6395 93.4848 45.4269 93.1748 45.3081C92.8648 45.1893 92.5282 45.1697 92.2076 45.2518C91.887 45.3339 91.5968 45.514 91.3738 45.7693L41.6206 97.9343L68.9615 113.965C69.8142 114.464 70.7743 114.726 71.7507 114.726C72.727 114.726 73.6872 114.464 74.5399 113.965L102.15 97.8243Z" fill="#FCCA3F"/>
<path d="M74.5937 113.748C73.7342 114.251 72.7664 114.516 71.7821 114.516C70.7978 114.516 69.83 114.251 68.9705 113.748L41.5488 97.7865L41.3212 98.0316L68.9675 114.235C69.827 114.738 70.7949 115.003 71.7791 115.003C72.7634 115.003 73.7313 114.738 74.5907 114.235L102.405 97.9593L102.336 97.5193L74.5937 113.748Z" fill="#EEAB37"/>
</svg>
