<svg width="29" height="29" viewBox="0 0 29 29" fill="none" xmlns="http://www.w3.org/2000/svg">
<g clip-path="url(#clip0_46_223)">
<path d="M7.8184 1.62793C5.80604 2.67366 4.0667 4.17637 2.73985 6.01556C1.413 7.85476 0.535553 9.97926 0.177867 12.2187H1.01887C6.44187 12.0931 10.6933 11.6233 14.1655 10.5599C12.6575 7.88613 10.817 5.2626 8.60913 2.5946L8.6072 2.59266L7.8184 1.62793ZM0.00386667 14.1521L0 14.5001C0 18.3996 1.53893 21.9395 4.0426 24.5457L4.35387 23.9193C4.37116 23.8846 4.39053 23.851 4.41187 23.8187C7.61733 18.9429 11.2443 16.0429 15.3004 14.7417C15.5749 14.6528 15.8533 14.5716 16.1317 14.4981C15.807 13.7536 15.4608 13.0186 15.0935 12.2941C11.2945 13.5179 6.728 14.0206 1.05173 14.1501H0.0058L0.00386667 14.1521Z" fill="url(#paint0_linear_46_223)"/>
<path d="M5.5293 25.8932C8.08383 27.9103 11.245 29.0052 14.5 29C16.2264 29 17.8833 28.6984 19.4164 28.1455V26.7535C18.9447 23.0125 18.1153 19.5808 16.8683 16.3057C16.5396 16.387 16.2129 16.4797 15.89 16.5822C12.3675 17.7132 9.07503 20.2614 6.05903 24.8337L5.53123 25.8932H5.5293ZM21.3498 27.2832C23.2186 26.2804 24.8452 24.8804 26.1151 23.1816C27.385 21.4829 28.2674 19.5266 28.7003 17.4503L27.608 16.9573C24.4644 16.0331 21.5354 15.6542 18.8055 15.9616C20.039 19.2869 20.8684 22.7786 21.342 26.5718C21.3478 26.6104 21.3498 26.6491 21.3498 26.6916V27.2832ZM28.969 15.4512C29.2243 11.6535 27.9702 7.90863 25.4794 5.03055L24.9052 5.66662C22.6432 8.41775 20.0602 10.3259 16.9205 11.6251C17.3304 12.4449 17.7132 13.2704 18.067 14.1075C21.2995 13.6435 24.6983 14.0805 28.2189 15.1226C28.2618 15.1351 28.3038 15.1506 28.3446 15.169L28.969 15.4512ZM24.1202 3.65015C21.4702 1.29392 18.046 -0.00527143 14.5 1.60762e-05C12.8025 1.60762e-05 11.1746 0.290016 9.66083 0.827483L10.1016 1.36495C12.4603 4.21275 14.4168 7.02768 16.0138 9.90642C18.9969 8.70195 21.3614 6.94068 23.4262 4.42155C23.4355 4.40972 23.4452 4.39811 23.4552 4.38675L24.1202 3.65208V3.65015Z" fill="url(#paint1_linear_46_223)"/>
</g>
<defs>
<linearGradient id="paint0_linear_46_223" x1="8.06587" y1="1.62793" x2="8.06587" y2="24.5457" gradientUnits="userSpaceOnUse">
<stop offset="0.182292" stop-color="#30048D"/>
<stop offset="0.828125" stop-color="#B536A0"/>
</linearGradient>
<linearGradient id="paint1_linear_46_223" x1="17.2654" y1="0" x2="17.2654" y2="29" gradientUnits="userSpaceOnUse">
<stop offset="0.182292" stop-color="#30048D"/>
<stop offset="0.828125" stop-color="#B536A0"/>
</linearGradient>
<clipPath id="clip0_46_223">
<rect width="29" height="29" fill="white"/>
</clipPath>
</defs>
</svg>
