<svg width="35" height="29" viewBox="0 0 35 29" fill="none" xmlns="http://www.w3.org/2000/svg">
<path d="M35 3.41176C33.7118 4.00882 32.3231 4.40118 30.8843 4.58882C32.3566 3.68471 33.4943 2.25176 34.0296 0.528823C32.641 1.38176 31.1018 1.97882 29.479 2.32C28.1573 0.852941 26.3002 0 24.1922 0C20.2605 0 17.0483 3.27529 17.0483 7.31823C17.0483 7.89824 17.1152 8.46118 17.2323 8.99C11.2763 8.68294 5.97275 5.76588 2.44264 1.34765C1.82361 2.42235 1.47228 3.68471 1.47228 5.01529C1.47228 7.55706 2.72706 9.80882 4.66778 11.0882C3.47992 11.0882 2.37572 10.7471 1.40535 10.2353V10.2865C1.40535 13.8347 3.88145 16.8029 7.16061 17.4682C6.10781 17.762 5.00255 17.8029 3.93164 17.5876C4.38605 19.0419 5.27599 20.3143 6.47637 21.2262C7.67674 22.138 9.12718 22.6434 10.6238 22.6712C8.08686 24.719 4.94215 25.8259 1.7065 25.81C1.13767 25.81 0.568834 25.7759 0 25.7076C3.17878 27.7888 6.95985 29 11.0086 29C24.1922 29 31.4364 17.8435 31.4364 8.17118C31.4364 7.84706 31.4364 7.54 31.4197 7.21588C32.825 6.19235 34.0296 4.89588 35 3.41176Z" fill="url(#paint0_linear_46_218)"/>
<defs>
<linearGradient id="paint0_linear_46_218" x1="17.5" y1="0" x2="17.5" y2="29" gradientUnits="userSpaceOnUse">
<stop offset="0.182292" stop-color="#30048D"/>
<stop offset="0.828125" stop-color="#B536A0"/>
</linearGradient>
</defs>
</svg>
