<svg width="30" height="29" viewBox="0 0 30 29" fill="none" xmlns="http://www.w3.org/2000/svg">
<path d="M2.06161 9.6914C-0.687202 12.297 -0.687202 16.653 2.06161 19.3096L10.0256 27.0075C12.7211 29.6642 17.2272 29.6642 19.9754 27.0075L27.9388 19.3096C30.6871 16.653 30.6871 12.297 27.9388 9.6914L19.9754 1.99289C17.2272 -0.664295 12.7211 -0.664295 10.0256 1.99289L2.06161 9.6914ZM18.4871 17.8708C16.5592 19.7288 13.4418 19.7288 11.5198 17.8708C9.59197 16.0072 9.59197 12.9938 11.5198 11.1358C13.4418 9.27223 16.5592 9.27223 18.4871 11.1358C20.4091 12.9938 20.4091 16.0072 18.4871 17.8708Z" fill="url(#paint0_linear_46_220)"/>
<defs>
<linearGradient id="paint0_linear_46_220" x1="15" y1="0" x2="15" y2="29" gradientUnits="userSpaceOnUse">
<stop offset="0.182292" stop-color="#30048D"/>
<stop offset="0.828125" stop-color="#B536A0"/>
</linearGradient>
</defs>
</svg>
