<svg width="143" height="142" viewBox="0 0 143 142" fill="none" xmlns="http://www.w3.org/2000/svg">
<rect width="143" height="142" rx="40" fill="#0C0F17"/>
<path d="M66.2971 112.705C68.1501 114.71 71.5 113.399 71.5 110.669V57.7293C71.5 56.0724 70.1569 54.7292 68.5 54.7292H45.1015C43.4447 54.7292 42.1015 56.0724 42.1015 57.7292V85.3571C42.1015 86.112 42.3861 86.8392 42.8986 87.3936L66.2971 112.705Z" fill="#2B82D2"/>
<path d="M97.8985 54.7291C99.5553 54.7291 100.898 53.3859 100.898 51.7291V25.927C100.898 24.2702 99.5553 22.927 97.8985 22.927H48.9602C46.3439 22.927 44.9813 26.0423 46.7573 27.9634L71.5 54.7291H45.1015C43.4447 54.7291 42.1015 56.0722 42.1015 57.7291V83.5312C42.1015 85.188 43.4447 86.5312 45.1015 86.5312H94.0398C96.6561 86.5312 98.0187 83.4159 96.2427 81.4947L71.5 54.7291H97.8985Z" fill="#1410AC"/>
</svg>
