<svg width="143" height="142" viewBox="0 0 143 142" fill="none" xmlns="http://www.w3.org/2000/svg">
<g clip-path="url(#clip0_15_117)">
<path d="M109.484 0H33.5156C15.0055 0 0 14.9005 0 33.2812V108.719C0 127.099 15.0055 142 33.5156 142H109.484C127.995 142 143 127.099 143 108.719V33.2812C143 14.9005 127.995 0 109.484 0Z" fill="#F03C2E"/>
<mask id="mask0_15_117" style="mask-type:luminance" maskUnits="userSpaceOnUse" x="15" y="15" width="113" height="112">
<path d="M15.6406 15.5312H127.359V126.469H15.6406V15.5312Z" fill="white"/>
</mask>
<g mask="url(#mask0_15_117)">
<path d="M125.251 66.06L76.4747 17.6253C75.4691 16.6255 74.1873 15.9446 72.7916 15.6688C71.396 15.393 69.9493 15.5347 68.6348 16.076C67.7621 16.4352 66.9693 16.9616 66.3016 17.6253L56.1771 27.679L69.0247 40.4368C72.0132 39.3968 75.4346 40.1073 77.8153 42.4719C78.9487 43.5995 79.7398 45.0208 80.0985 46.5735C80.4571 48.1263 80.3688 49.7479 79.8436 51.2532L92.227 63.5501C95.2228 62.5239 98.6788 63.1856 101.07 65.5675C102.268 66.7565 103.084 68.2717 103.414 69.9212C103.744 71.5708 103.574 73.2805 102.925 74.8341C102.055 76.9169 100.388 78.5715 98.2902 79.4341C96.1922 80.2967 93.8351 80.2967 91.7372 79.4341C90.6982 79.0064 89.7541 78.3802 88.9593 77.5903C86.4456 75.0942 85.8244 71.4194 87.0952 68.3442L75.5463 56.8761V87.0549C76.3847 87.4668 77.1508 88.0099 77.8153 88.6635C79.4209 90.2579 80.3229 92.4202 80.3229 94.675C80.3229 96.9297 79.4209 99.0921 77.8153 100.686C76.2098 102.281 74.0322 103.176 71.7616 103.176C69.491 103.176 67.3134 102.281 65.7078 100.686C64.5094 99.498 63.6932 97.9831 63.3625 96.3337C63.0318 94.6843 63.2014 92.9745 63.8499 91.4209C64.2805 90.3893 64.9118 89.4523 65.7078 88.6635C66.5351 87.8454 67.4534 87.2247 68.5114 86.8087V56.3491C67.4616 55.9229 66.5084 55.2924 65.7078 54.4948C64.5058 53.3024 63.6885 51.7816 63.3602 50.1262C63.0319 48.4708 63.2075 46.7558 63.8644 45.1999L51.1916 32.6229L17.7458 65.7999C16.739 66.799 16.0532 68.0723 15.7753 69.4586C15.4974 70.8448 15.6398 72.2818 16.1846 73.5877C16.5466 74.4547 17.0771 75.2424 17.7458 75.9057L66.525 124.337C67.1928 125 67.9857 125.527 68.8583 125.886C70.6213 126.61 72.6019 126.61 74.3649 125.886C75.2375 125.527 76.0303 125 76.6981 124.337L125.251 76.2003C125.919 75.5369 126.449 74.7492 126.811 73.8823C127.173 73.0153 127.36 72.0861 127.36 71.1476C127.36 70.209 127.174 69.2796 126.812 68.4126C126.45 67.5455 125.919 66.7578 125.251 66.0944" fill="white"/>
</g>
</g>
<defs>
<clipPath id="clip0_15_117">
<rect width="143" height="142" fill="white"/>
</clipPath>
</defs>
</svg>
