<svg width="143" height="142" viewBox="0 0 143 142" fill="none" xmlns="http://www.w3.org/2000/svg">
<rect width="143" height="142" rx="40" fill="#0C0F17"/>
<path d="M110.625 29.4916C107.429 26.0998 103.583 24.4062 99.084 24.4062H44.6419C40.1424 24.4062 36.297 26.0998 33.1012 29.4916C29.9054 32.8834 28.3096 36.9646 28.3096 41.7399V99.5205C28.3096 104.296 29.9054 108.377 33.1012 111.769C36.297 115.161 40.1424 116.854 44.6419 116.854H57.3466C58.175 116.854 58.7985 116.822 59.217 116.762C59.704 116.658 60.1435 116.382 60.464 115.98C60.8782 115.517 61.0874 114.846 61.0874 113.967L61.0569 109.872C61.0395 107.262 61.0308 105.198 61.0308 103.671L59.7228 103.912C58.8944 104.074 57.848 104.143 56.5793 104.125C55.2569 104.099 53.9387 103.958 52.6379 103.704C51.2532 103.432 49.9497 102.813 48.8361 101.899C47.6698 100.962 46.7999 99.6712 46.3422 98.1971L45.7754 96.8089C45.2977 95.7139 44.6975 94.6838 43.9879 93.741C43.1769 92.6166 42.3529 91.8577 41.5202 91.4552L41.1278 91.1544C40.8542 90.9464 40.6053 90.704 40.3866 90.4325C40.1777 90.1806 40.0058 89.8967 39.8765 89.5904C39.7631 89.3081 39.859 89.0768 40.1599 88.8963C40.4651 88.7112 41.0101 88.6233 41.8079 88.6233L42.9415 88.8084C43.6958 88.9657 44.6331 89.4469 45.7449 90.2475C46.87 91.0616 47.8099 92.1318 48.496 93.3801C49.368 95.0228 50.4144 96.2768 51.6439 97.1421C52.8734 98.0027 54.1116 98.4377 55.3585 98.4377C56.6054 98.4377 57.6823 98.3359 58.5936 98.1369C59.4748 97.9435 60.331 97.6391 61.1441 97.23C61.4842 94.5462 62.4085 92.4732 63.9214 91.0295C61.9611 90.8255 60.0182 90.4635 58.1096 89.9467C56.247 89.4036 54.4557 88.6155 52.7774 87.6007C51.0215 86.586 49.4705 85.2151 48.2126 83.5657C47.0049 81.96 46.0109 79.8546 45.2348 77.2495C44.4631 74.6397 44.0751 71.6274 44.0751 68.2171C44.0751 63.3631 45.5662 59.231 48.5527 55.8161C47.1575 52.1698 47.2883 48.0747 48.9494 43.5446C50.0481 43.179 51.6744 43.452 53.8282 44.3543C55.982 45.2567 57.5603 46.0294 58.563 46.668C59.5658 47.3158 60.368 47.8572 60.9741 48.2968C64.5186 47.2499 68.1816 46.7236 71.8608 46.7328C75.6059 46.7328 79.2334 47.2556 82.7518 48.2968L84.9056 46.8531C86.5623 45.7974 88.3098 44.9111 90.1244 44.2063C92.13 43.4011 93.6559 43.1836 94.7198 43.5446C96.4201 48.0793 96.5684 52.1698 95.1688 55.8207C98.1554 59.231 99.6508 63.3631 99.6508 68.2217C99.6508 71.632 99.2628 74.6536 98.4867 77.2773C97.715 79.9055 96.7122 82.0109 95.4827 83.5981C94.2027 85.2263 92.6453 86.5842 90.8918 87.6007C89.0606 88.6834 87.2818 89.4654 85.5596 89.9467C83.6512 90.4652 81.7083 90.8287 79.7478 91.0341C81.7098 92.8387 82.6951 95.6845 82.6951 99.576V113.967C82.6951 114.647 82.7867 115.198 82.9785 115.619C83.0667 115.822 83.1924 116.004 83.3482 116.154C83.504 116.304 83.6867 116.419 83.8854 116.493C84.3039 116.651 84.6702 116.752 84.9928 116.789C85.3154 116.836 85.7776 116.85 86.3793 116.85H99.084C103.583 116.85 107.429 115.156 110.625 111.764C113.816 108.377 115.416 104.291 115.416 99.5158V41.7399C115.416 36.9646 113.821 32.8834 110.625 29.4916Z" fill="#8C8C8C"/>
</svg>
