<svg width="143" height="142" viewBox="0 0 143 142" fill="none" xmlns="http://www.w3.org/2000/svg">
<path d="M109.484 0H33.5156C15.0055 0 0 14.9005 0 33.2812V108.719C0 127.099 15.0055 142 33.5156 142H109.484C127.995 142 143 127.099 143 108.719V33.2812C143 14.9005 127.995 0 109.484 0Z" fill="#E14E1D"/>
<path d="M26.8125 21.0779L31.622 74.6568H93.4639L91.3887 97.6375L71.4771 102.984L51.6029 97.6452L50.274 82.8894H32.3649L34.9261 111.334L71.4732 121.414L108.067 111.334L112.973 56.9412H47.9407L46.308 38.7974H114.589L116.188 21.0779H26.8125Z" fill="white"/>
<path d="M71.5 21.0779H26.8125L31.622 74.6568H71.5V56.9412H47.9407L46.308 38.7974H71.5V21.0779ZM71.5 102.976L71.4771 102.984L51.6029 97.6452L50.274 82.8894H32.3649L34.9261 111.334L71.4732 121.414L71.5006 121.406V102.976H71.5Z" fill="#EBEBEB"/>
</svg>
