<svg width="143" height="142" viewBox="0 0 143 142" fill="none" xmlns="http://www.w3.org/2000/svg">
<path d="M109.484 0H33.5156C15.0055 0 0 14.9005 0 33.2812V108.719C0 127.099 15.0055 142 33.5156 142H109.484C127.995 142 143 127.099 143 108.719V33.2812C143 14.9005 127.995 0 109.484 0Z" fill="#242938"/>
<path d="M56.7721 101.296C56.7721 101.296 52.4821 103.889 59.7578 104.631C68.5434 105.742 73.1886 105.556 82.8875 103.705C82.8875 103.705 85.4984 105.375 89.0432 106.67C67.2162 115.931 39.6093 106.114 56.7721 101.296ZM53.9741 89.257C53.9741 89.257 49.3099 92.777 56.585 93.5164C66.0967 94.4422 73.5612 94.628 86.4323 92.037C86.4323 92.037 88.1131 93.8903 90.9095 94.816C64.6092 102.596 35.1339 95.5554 53.9741 89.2586V89.257ZM105.46 110.374C105.46 110.374 108.63 112.967 101.915 115.006C89.4158 118.71 49.497 119.823 38.3045 115.006C34.3893 113.336 41.8499 110.927 44.2736 110.56C46.699 110.004 48.0039 110.004 48.0039 110.004C43.7139 107.04 19.4625 116.117 35.6919 118.729C80.275 125.955 117.025 115.58 105.458 110.393L105.46 110.374ZM58.8238 76.6594C58.8238 76.6594 38.4899 81.4769 51.5465 83.1421C57.143 83.8815 68.1484 83.6979 78.4087 82.9563C86.8032 82.2163 95.2168 80.7336 95.2168 80.7336C95.2168 80.7336 92.2311 82.0305 90.1799 83.3262C69.4567 88.7028 29.7233 86.2944 41.103 80.737C50.8058 76.1053 58.8238 76.6594 58.8238 76.6594ZM95.1972 96.8506C116.093 86.1063 106.39 75.7337 99.6744 77.0311C97.9935 77.4011 97.2489 77.771 97.2489 77.771C97.2489 77.771 97.8081 76.6594 99.1146 76.2917C112.358 71.66 122.806 90.1844 94.8252 97.4086C94.8252 97.4086 95.0123 97.2228 95.1972 96.8528V96.8506ZM60.875 126.116C81.0218 127.413 111.801 125.376 112.548 115.927C112.548 115.927 111.058 119.631 95.9463 122.41C78.7852 125.558 57.5173 125.188 45.0204 123.149C45.0204 123.149 47.6313 125.372 60.8767 126.114L60.875 126.116Z" fill="white"/>
<path d="M82.4959 15.5312C82.4959 15.5312 94.061 27.2013 71.4905 44.7966C53.3954 59.0587 67.3843 67.2104 71.4905 76.4698C60.8577 67.0245 53.2122 58.687 58.4322 50.907C66.0989 39.4288 87.1752 33.8714 82.4959 15.5312ZM76.5273 68.6936C81.9362 74.8063 75.0376 80.3637 75.0376 80.3637C75.0376 80.3637 88.841 73.3269 82.4998 64.6178C76.7161 56.2819 72.2396 52.2061 96.4904 38.3117C96.4904 38.3117 58.249 47.7569 76.5312 68.6897L76.5273 68.6936Z" fill="#F58219"/>
</svg>
