<svg width="143" height="142" viewBox="0 0 143 142" fill="none" xmlns="http://www.w3.org/2000/svg">
<g clip-path="url(#clip0_15_234)">
<path d="M109.484 0H33.5156C15.0055 0 0 14.9005 0 33.2812V108.719C0 127.099 15.0055 142 33.5156 142H109.484C127.995 142 143 127.099 143 108.719V33.2812C143 14.9005 127.995 0 109.484 0Z" fill="url(#paint0_linear_15_234)"/>
<path d="M44.2619 38.1292C38.6837 46.2376 39.3786 56.785 43.6284 65.3898L43.9412 66.0028L44.1524 66.391C44.1915 66.4665 44.2362 66.5408 44.2769 66.614C44.3507 66.7505 44.4244 66.8814 44.4881 67.0156L44.8948 67.7212L45.1266 68.1095L45.5986 68.8561L45.8097 69.1706C46.0209 69.5062 46.2594 69.8395 46.494 70.1685L46.513 70.1945C46.5499 70.2472 46.5912 70.2994 46.6191 70.3521C46.8213 70.6349 47.0409 70.914 47.252 71.1907L47.4866 71.4925L48.062 72.208L48.2815 72.4743C48.5435 72.7877 48.8111 73.0972 49.0842 73.4012L49.101 73.4178C49.1116 73.4311 49.1222 73.4389 49.1328 73.4522C49.3976 73.749 49.6691 74.0391 49.9478 74.3225L50.2098 74.5888L50.8611 75.235L51.127 75.4907C51.4197 75.7691 51.7174 76.0426 52.0191 76.3116L52.1883 76.4581L52.9983 77.1503L53.3334 77.421L54.0093 77.9452L54.3707 78.2231L55.4036 78.9725C55.4298 78.9902 55.4527 79.0091 55.4795 79.0268C55.722 79.1949 55.9683 79.3574 56.2152 79.5199L56.5342 79.7346L57.6871 80.4479L58.0061 80.6293L58.8719 81.1197C59.03 81.2056 59.192 81.2877 59.35 81.3693L59.969 81.6838L60.1114 81.7531L60.365 81.8768L61.3465 82.3361L61.5548 82.4409C61.9335 82.6079 62.3151 82.7682 62.6994 82.9218L62.9781 83.0333L64.0579 83.4377L64.193 83.4859C64.592 83.6258 64.9933 83.7587 65.3968 83.8848L65.6873 83.9724C66.1096 84.0983 66.5056 84.2486 66.9302 84.3291C93.9046 89.3157 101.742 67.9458 101.742 67.9458C95.1615 76.6167 83.4802 78.902 72.4133 76.3577C71.9938 76.2528 71.5871 76.1302 71.1777 76.0077L70.8694 75.9028C70.471 75.7789 70.0747 75.6485 69.6807 75.5118L69.517 75.4519C69.1655 75.326 68.816 75.1949 68.4685 75.0586L68.173 74.941C67.7926 74.7896 67.4151 74.6309 67.0408 74.4651L66.8151 74.3647L65.8604 73.9137L65.5862 73.7795C65.3381 73.6556 65.0916 73.5288 64.8466 73.399L64.3539 73.1366C64.0559 72.9747 63.7609 72.8073 63.4691 72.6346L63.1703 72.4665C62.7822 72.2349 62.3979 71.9973 62.0173 71.7537C61.9118 71.6855 61.8101 71.6134 61.7056 71.5441L60.8851 70.9927L60.6214 70.8041L59.8455 70.2378L59.5009 69.9754L58.8009 69.4218L58.4887 69.1706L57.6173 68.4367C57.5841 68.4072 57.5489 68.3801 57.5117 68.3557C57.2019 68.0795 56.8965 67.7984 56.5956 67.5126L56.3375 67.2613L55.6784 66.609L55.4215 66.3467C55.1469 66.0637 54.8776 65.7758 54.6137 65.483C54.6009 65.468 54.5858 65.4547 54.5735 65.4409C54.2942 65.1319 54.0211 64.8168 53.754 64.4973L53.5395 64.2394L52.9486 63.5022L52.7318 63.2299L52.0509 62.3124C45.9064 53.8357 43.71 42.1451 48.6088 32.5434L44.2619 38.1292ZM61.5777 31.2976C57.5447 37.169 57.7631 45.0261 60.9096 51.2353C61.4358 52.2778 62.0319 53.284 62.6938 54.2473C63.2982 55.1231 63.9685 56.1665 64.7706 56.8687C65.0611 57.1832 65.365 57.4977 65.6756 57.8189C65.7538 57.8993 65.8342 57.9759 65.9141 58.0569C66.2157 58.3536 66.5241 58.6437 66.8391 58.9261C66.8519 58.9366 66.8637 58.9488 66.8771 58.9593C67.2321 59.2726 67.5951 59.5769 67.9658 59.8718L68.211 60.0643C68.5797 60.3527 68.9567 60.6306 69.3405 60.8991C69.3505 60.9074 69.3612 60.9157 69.3723 60.9235C69.541 61.0416 69.7153 61.1537 69.8873 61.2668C69.97 61.3217 70.0477 61.3794 70.1303 61.4305C70.4057 61.6096 70.685 61.7827 70.9677 61.9496L71.0861 62.019L71.8251 62.4383C71.9117 62.4877 72 62.5304 72.0888 62.5765L72.6166 62.8471C72.6434 62.861 72.6697 62.871 72.6948 62.8837C73.0507 63.0618 73.4087 63.2299 73.7752 63.3924C73.8534 63.4268 73.9332 63.4584 74.0137 63.4917C74.3071 63.6183 74.6028 63.7396 74.9007 63.8556L75.2806 63.9964C75.5504 64.0957 75.8213 64.1911 76.0939 64.2827L76.4609 64.4008C76.8485 64.5234 77.2317 64.6765 77.6362 64.7447C98.4628 68.2343 103.272 52.0163 103.272 52.0163C98.9381 58.3281 90.5453 61.3417 81.5871 58.9909C81.191 58.8861 80.7978 58.7707 80.4079 58.6448C80.2884 58.6082 80.1716 58.5694 80.0532 58.54C79.7766 58.4494 79.5017 58.3536 79.2287 58.2527L78.8556 58.1123C78.5567 58.0075 78.2612 57.8766 77.9691 57.7507C77.8886 57.7157 77.8082 57.6847 77.7294 57.6481C77.362 57.4883 76.9993 57.318 76.6419 57.1372C76.4581 57.0462 76.2777 56.9508 76.0967 56.856L75.7822 56.6929C75.55 56.566 75.3202 56.4349 75.0929 56.2996L74.9281 56.1948C74.647 56.0278 74.369 55.8558 74.0941 55.6789C74.0092 55.624 73.9271 55.5741 73.8428 55.5092L73.302 55.1475C72.9202 54.879 72.5449 54.6014 72.1765 54.3149L71.9229 54.1136C68.0027 50.9829 64.8941 46.7052 63.4172 41.8539C61.8682 36.8212 62.2028 31.175 64.8952 26.5922L61.5777 31.2976ZM76.138 26.1939C73.7601 29.7334 73.5271 34.1287 75.1878 38.0376C76.9279 42.1861 80.4934 45.4416 84.6543 46.9842C84.8258 47.0491 84.9979 47.1062 85.1822 47.1656L85.4107 47.2388C85.6553 47.3164 85.8994 47.4063 86.1519 47.4551C97.6522 49.7016 100.771 41.4867 101.601 40.2775C98.8683 44.2568 94.2767 45.212 88.6427 43.8291C88.1992 43.7187 87.7082 43.5562 87.2697 43.4037C86.7184 43.2056 86.1783 42.9784 85.6514 42.7231C84.6487 42.2347 83.6979 41.6477 82.8132 40.9708C77.7607 37.1019 74.6281 29.7229 77.9183 23.7134M50.7404 101.331L49.9618 104.074L50.7404 101.332V101.331ZM73.6355 95.0506H70.0667C69.9655 95.0542 69.8683 95.0903 69.7896 95.1534C69.7108 95.2165 69.6548 95.3033 69.6298 95.4006L67.0955 107.046C67.0705 107.143 67.0146 107.23 66.936 107.293C66.8575 107.356 66.7606 107.392 66.6598 107.395H64.1333C61.633 107.395 61.9224 105.679 62.4435 103.327L62.4597 103.256L62.7625 101.652L62.8932 100.991L64.0467 95.4006C64.0577 95.358 64.0584 95.3133 64.0488 95.2703C64.0393 95.2273 64.0197 95.1871 63.9917 95.153C63.9636 95.1188 63.928 95.0917 63.8875 95.0737C63.847 95.0557 63.8028 95.0475 63.7585 95.0495H60.0946C59.9937 95.053 59.8966 95.0891 59.8181 95.1522C59.7396 95.2154 59.6839 95.3022 59.6595 95.3995L58.0089 103.173C57.1011 107.287 57.3419 111.211 62.2748 111.333L62.4173 111.336H70.1588C70.2599 111.333 70.357 111.297 70.4357 111.233C70.5143 111.17 70.5703 111.084 70.5951 110.986L73.9332 95.3995C73.9757 95.2071 73.8455 95.0495 73.6484 95.0495L73.6355 95.0506ZM87.8757 107.436C88.0746 107.436 88.1925 107.593 88.164 107.786L87.8177 109.469L87.8757 107.436Z" fill="white"/>
<path d="M78.3277 105.27C78.3249 105.085 78.536 104.769 78.7343 104.769L78.2886 104.761C78.0774 106.768 78.3277 105.27 78.3277 105.27ZM87.8757 107.436C88.0746 107.436 88.1924 107.593 88.164 107.786L87.7607 109.743L87.8757 107.436ZM81.2357 111.538H81.0687H81.2569H81.2357ZM28.762 105.312L29.3167 102.871L28.6832 105.66L28.6089 106.01L28.7631 105.31L28.762 105.312ZM35.3992 95.0106H31.479C31.3775 95.0142 31.28 95.0501 31.2007 95.1131C31.1214 95.176 31.0647 95.2626 31.0388 95.3601L30.2953 98.61C30.283 98.6521 30.281 98.6965 30.2896 98.7395C30.2981 98.7825 30.317 98.8228 30.3445 98.8571C30.3721 98.8914 30.4075 98.9185 30.4478 98.9364C30.4882 98.9542 30.5322 98.9621 30.5763 98.9595H34.5272C34.6282 98.9557 34.7253 98.9196 34.804 98.8567C34.8827 98.7937 34.9389 98.7072 34.964 98.61L35.6824 95.3523C35.7243 95.1609 35.5975 95.0034 35.3975 95.0034L35.3992 95.0106ZM23.1576 117.933L26.3908 117.959C25.4361 117.959 23.8603 117.941 23.1565 117.933L23.1576 117.933Z" fill="white"/>
<path d="M34.263 100.08H30.311C30.2095 100.084 30.112 100.12 30.0327 100.183C29.9534 100.246 29.8967 100.332 29.8708 100.43L28.762 105.311L28.6078 106.011L27.5521 110.995C27.5001 111.227 27.4365 111.457 27.3622 111.684C27.3622 111.684 26.6231 113.865 25.3836 113.84L24.1536 113.818C24.0527 113.82 23.9552 113.855 23.8754 113.916C23.7956 113.978 23.7377 114.063 23.7101 114.159L22.8917 117.58C22.8789 117.622 22.8764 117.666 22.8844 117.709C22.8923 117.752 22.9106 117.793 22.9376 117.827C22.9645 117.862 22.9995 117.889 23.0394 117.908C23.0793 117.926 23.1231 117.935 23.1671 117.933L26.4014 117.959C29.5016 117.959 31.1349 116.253 32.1828 111.346L34.5585 100.442C34.601 100.25 34.4719 100.093 34.2736 100.093L34.263 100.08ZM90.3939 111.339C90.1956 111.339 90.0772 111.182 90.109 110.989L93.0813 97.1636L90.3939 111.339Z" fill="white"/>
<path d="M90.152 111.164C90.128 111.067 90.142 110.831 90.1838 110.639L91.5943 104.076L90.1079 110.988C90.0654 111.182 90.1945 111.339 90.3928 111.339H90.7542C90.5559 111.339 90.1755 111.26 90.152 111.164ZM94.2912 111.26C94.1834 111.302 93.932 111.339 93.7337 111.339H94.0946C94.1953 111.334 94.292 111.298 94.37 111.235C94.4481 111.171 94.5034 111.085 94.5275 110.987L94.5995 110.637C94.5604 110.83 94.3884 111.217 94.2828 111.26H94.2912ZM106.853 98.0892L107.017 98.7604C107.063 98.9523 106.937 99.1082 106.739 99.1093M95.6564 105.433L95.8022 104.737L96.3692 102.1L95.7273 105.086L95.6564 105.432V105.433ZM93.1299 96.936L93.0064 97.5124L91.5954 104.076L93.0824 97.1635L93.1299 96.9371V96.936Z" fill="white"/>
<path d="M107.018 98.7605L106.855 98.0894L106.612 97.041C106.291 95.8035 105.349 95.0874 103.303 95.0874L93.8845 95.0813C93.7836 95.0847 93.6865 95.1207 93.6081 95.1838C93.5296 95.247 93.4741 95.3339 93.45 95.4313L93.3042 96.1163L93.093 97.1508L90.1956 110.627C90.1531 110.82 90.1397 111.046 90.1637 111.151C90.1883 111.256 90.5682 111.326 90.7659 111.326H93.7432C93.9415 111.326 94.1918 111.29 94.3007 111.248C94.4096 111.204 94.5688 110.828 94.6174 110.625L95.7475 105.074L96.9563 99.45C96.9812 99.353 97.0371 99.2667 97.1155 99.2038C97.1939 99.1409 97.2907 99.1049 97.3914 99.1011L106.76 99.0967C106.957 99.0967 107.083 98.9397 107.037 98.7478L107.018 98.7605ZM119.079 92.6867L118.358 92.6895H115.36C115.25 92.6963 115.143 92.7261 115.046 92.7771C114.948 92.8281 114.863 92.899 114.796 92.9851L108.165 102.631C108.053 102.794 107.925 102.77 107.88 102.579L107.392 100.453C107.366 100.356 107.309 100.27 107.23 100.207C107.15 100.144 107.053 100.108 106.952 100.105H102.69C102.491 100.105 102.373 100.259 102.428 100.448L104.328 107.094C104.383 107.282 104.386 107.593 104.339 107.785L103.494 111.001C103.479 111.042 103.475 111.087 103.482 111.13C103.49 111.173 103.508 111.213 103.535 111.248C103.562 111.282 103.597 111.309 103.637 111.327C103.678 111.344 103.722 111.352 103.766 111.348H107.988C108.09 111.344 108.189 111.308 108.269 111.246C108.35 111.184 108.409 111.099 108.439 111.002L109.283 107.786C109.349 107.56 109.453 107.346 109.589 107.153L120.365 92.9646C120.485 92.8071 120.421 92.6795 120.222 92.6812L119.092 92.6889L119.079 92.6867ZM85.2118 101.008C85.1867 101.218 84.9884 101.375 84.7895 101.375H79.3835C79.1969 101.375 79.1019 101.249 79.1304 101.092L79.1343 101.064L79.1589 100.973C79.6868 99.6098 80.7269 98.715 82.7021 98.715C84.9269 98.715 85.361 99.795 85.2101 101.008H85.2118ZM83.626 94.8139C76.6893 94.8139 75.0454 98.9952 74.1237 103.215C73.2009 107.517 73.2808 111.54 80.4587 111.54H81.5966L82.473 111.537L87.0407 111.509C87.1409 111.505 87.2369 111.468 87.3144 111.405C87.3918 111.342 87.4465 111.255 87.4702 111.158L88.164 107.791C88.2042 107.598 88.0746 107.44 87.8757 107.44H81.4223C78.8567 107.44 78.0937 106.763 78.3741 104.772H88.6902C88.7732 104.771 88.854 104.746 88.9221 104.699C88.9902 104.651 89.0425 104.585 89.0723 104.508C89.084 104.479 89.0924 104.45 89.0974 104.419C90.6285 98.684 90.1894 94.8184 83.6282 94.8184L83.626 94.8139ZM50.8376 100.985L50.7404 101.328L49.9618 104.071L49.1825 106.811C49.1502 106.908 49.0891 106.992 49.0073 107.054C48.9255 107.115 48.8269 107.151 48.7245 107.155H44.5998C41.4723 107.155 40.7109 104.726 41.4723 101.143C42.2325 97.4792 43.7267 95.2005 46.8046 94.9703C51.0108 94.6558 51.8515 97.5935 50.8376 100.984V100.985ZM53.6652 106.945C53.6652 106.945 55.608 102.259 56.0515 99.551C56.6532 95.9261 54.8271 90.6704 47.7687 90.6704C40.75 90.6704 37.7029 95.6881 36.541 101.155C35.3791 106.649 36.9018 111.468 43.8787 111.43L54.5277 111.391C54.6298 111.386 54.7279 111.35 54.8086 111.288C54.8893 111.225 54.9488 111.14 54.9791 111.043L55.8762 107.648C55.8905 107.607 55.8944 107.563 55.8876 107.52C55.8808 107.477 55.8634 107.437 55.837 107.402C55.8105 107.367 55.7755 107.339 55.7352 107.321C55.695 107.304 55.6508 107.296 55.6069 107.3L53.8892 107.289C53.7205 107.288 53.625 107.181 53.644 107.038C53.6482 107.011 53.6553 106.984 53.6652 106.958V106.945Z" fill="white"/>
<path d="M88.407 103.81C88.407 103.872 88.382 103.932 88.3377 103.976C88.2933 104.02 88.2331 104.045 88.1704 104.045C88.1077 104.045 88.0475 104.02 88.0031 103.976C87.9588 103.932 87.9338 103.872 87.9338 103.81C87.9338 103.748 87.9588 103.688 88.0031 103.644C88.0475 103.6 88.1077 103.575 88.1704 103.575C88.2331 103.575 88.2933 103.6 88.3377 103.644C88.382 103.688 88.407 103.748 88.407 103.81Z" fill="white"/>
</g>
<defs>
<linearGradient id="paint0_linear_15_234" x1="0" y1="0" x2="141.997" y2="142.996" gradientUnits="userSpaceOnUse">
<stop stop-color="#FF5C00"/>
<stop offset="1" stop-color="#FF0F00"/>
</linearGradient>
<clipPath id="clip0_15_234">
<rect width="143" height="142" fill="white"/>
</clipPath>
</defs>
</svg>
