<svg width="143" height="142" viewBox="0 0 143 142" fill="none" xmlns="http://www.w3.org/2000/svg">
<g clip-path="url(#clip0_16_333)">
<path d="M0 30C0 13.4315 13.4315 0 30 0H113C129.569 0 143 13.4315 143 30V112C143 128.569 129.569 142 113 142H30C13.4315 142 0 128.569 0 112V30Z" fill="#F5DE19"/>
<path d="M92.9902 105.945C94.0563 108.096 95.7127 109.903 97.7684 111.159C99.824 112.416 102.195 113.069 104.609 113.045C109.48 113.045 112.595 110.627 112.595 107.277C112.595 103.283 109.395 101.854 104.033 99.5243L101.092 98.273C92.6014 94.683 86.9708 90.1878 86.9708 80.6827C86.9708 71.9275 93.6739 65.258 104.189 65.258C107.593 65.0139 110.994 65.7704 113.967 67.4331C116.941 69.0958 119.356 71.5911 120.911 74.6078L111.719 80.4431C111.12 78.9473 110.078 77.6676 108.73 76.7736C107.382 75.8797 105.792 75.4137 104.171 75.4376C103.464 75.3673 102.75 75.444 102.074 75.6629C101.399 75.8819 100.776 76.2381 100.247 76.709C99.7177 77.1799 99.293 77.7552 98.9999 78.3981C98.7069 79.041 98.5519 79.7374 98.5449 80.4431C98.5449 83.9443 100.73 85.3643 105.775 87.5431L108.716 88.7945C118.708 93.05 124.356 97.3855 124.356 107.135C124.356 117.647 116.04 123.407 104.873 123.407C100.521 123.682 96.1829 122.701 92.3808 120.582C88.5786 118.463 85.4751 115.297 83.445 111.466L92.9902 105.945ZM51.4532 106.957C53.2988 110.21 54.979 112.961 59.0188 112.961C62.8798 112.961 65.3197 111.461 65.3197 105.626V65.9236H77.077V105.781C77.077 117.869 69.927 123.371 59.5193 123.371C55.8404 123.571 52.1867 122.661 49.0387 120.76C45.8906 118.859 43.3954 116.057 41.8811 112.721L51.4532 106.957Z" fill="black"/>
</g>
<defs>
<clipPath id="clip0_16_333">
<rect width="143" height="142" fill="white"/>
</clipPath>
</defs>
</svg>
