<svg width="143" height="142" viewBox="0 0 143 142" fill="none" xmlns="http://www.w3.org/2000/svg">
<g clip-path="url(#clip0_15_164)">
<path d="M109.484 0H33.5156C15.0055 0 0 14.9005 0 33.2812V108.719C0 127.099 15.0055 142 33.5156 142H109.484C127.995 142 143 127.099 143 108.719V33.2812C143 14.9005 127.995 0 109.484 0Z" fill="#023430"/>
<path d="M95.6162 59.6794C89.7303 33.897 77.4635 27.0332 74.3343 22.1814C73.0438 20.044 71.9007 17.8222 70.9129 15.5312C70.7476 17.8221 70.4437 19.2643 68.483 21.0016C64.5466 24.4867 47.8279 38.0155 46.4208 67.3102C45.1098 94.6241 66.6419 111.466 69.4863 113.207C71.6737 114.276 74.3377 113.23 75.6375 112.249C86.0167 105.175 100.198 86.3171 95.6273 59.6794" fill="#10AA50"/>
<path d="M71.8044 98.6628C71.2626 105.423 70.8744 109.352 69.498 113.215C69.498 113.215 70.4012 119.651 71.0358 126.469H73.2808C73.8163 121.668 74.634 116.902 75.7297 112.196C72.8233 110.776 71.9162 104.595 71.8044 98.6628Z" fill="#B8C4C2"/>
<path d="M75.7258 112.2C72.7887 110.852 71.9391 104.542 71.8084 98.6629C72.5345 88.9654 72.7463 79.2366 72.4429 69.5169C72.2888 64.4171 72.5155 22.2808 71.1777 16.1116C72.093 18.201 73.1475 20.2275 74.3343 22.1776C77.4636 27.0334 89.7342 33.8971 95.6162 59.6795C100.198 86.2718 86.0938 105.08 75.7258 112.2Z" fill="#12924F"/>
</g>
<defs>
<clipPath id="clip0_15_164">
<rect width="143" height="142" fill="white"/>
</clipPath>
</defs>
</svg>
