<svg width="143" height="142" viewBox="0 0 143 142" fill="none" xmlns="http://www.w3.org/2000/svg">
<path d="M109.484 0H33.5156C15.0055 0 0 14.9005 0 33.2812V108.719C0 127.099 15.0055 142 33.5156 142H109.484C127.995 142 143 127.099 143 108.719V33.2812C143 14.9005 127.995 0 109.484 0Z" fill="#242938"/>
<mask id="mask0_15_244" style="mask-type:luminance" maskUnits="userSpaceOnUse" x="21" y="21" width="101" height="100">
<path d="M21.2266 21.0781H121.773V120.922H21.2266V21.0781Z" fill="white"/>
</mask>
<g mask="url(#mask0_15_244)">
<path fill-rule="evenodd" clip-rule="evenodd" d="M113.842 98.8508C108.373 98.6999 104.131 99.2562 100.575 100.742C99.5515 101.15 97.9087 101.15 97.7735 102.43C98.3209 102.967 98.3868 103.845 98.8667 104.59C99.6861 105.94 101.124 107.76 102.422 108.704L106.798 111.809C109.465 113.427 112.473 114.373 115.071 115.992C116.576 116.937 118.08 118.152 119.585 119.166C120.351 119.705 120.815 120.585 121.773 120.92V120.716C121.295 120.111 121.157 119.234 120.681 118.556L118.627 116.6C116.646 113.969 114.182 111.672 111.515 109.785C109.327 108.3 104.542 106.276 103.653 103.78L103.518 103.629C105.02 103.478 106.798 102.953 108.235 102.548C110.562 101.943 112.68 102.076 115.071 101.469L118.356 100.524V99.9185C117.125 98.7043 116.236 97.0841 114.938 95.9381C111.451 92.9689 107.619 90.0662 103.653 87.6372C101.533 86.2882 98.7974 85.409 96.5412 84.2641C95.7184 83.8587 94.3527 83.6562 93.8745 82.9817C92.6406 81.4996 91.9585 79.5404 91.0698 77.7848L85.4632 66.0432C84.2326 63.4112 83.4785 60.7792 81.9765 58.3503C74.932 46.8777 67.272 39.928 55.5103 33.1109C52.9815 31.6936 49.9729 31.084 46.7739 30.343L41.646 30.0712C40.55 29.5991 39.4569 28.3161 38.4994 27.7082C34.6016 25.2787 24.5491 20.0158 21.6746 26.9522C19.8284 31.3381 24.4111 35.6563 25.9668 37.8845C27.1315 39.4365 28.6335 41.1904 29.4564 42.9455C29.9161 44.092 30.0697 45.3079 30.5495 46.5227C31.6421 49.4913 32.6688 52.7995 34.105 55.5674C34.8714 56.9846 35.6763 58.4712 36.6337 59.7525C37.1811 60.5085 38.1391 60.8325 38.343 62.0467C37.385 63.3974 37.3191 65.4198 36.7717 67.1093C34.3089 74.7352 35.2668 84.1826 38.7536 89.7972C39.8495 91.4834 42.4319 95.1965 45.936 93.7782C49.0133 92.5634 48.3268 88.7172 49.2155 85.3425C49.4222 84.5337 49.2848 83.9935 49.6936 83.4521V83.6035L52.4983 89.2042C54.6182 92.5107 58.3122 95.9531 61.3878 98.2489C63.0278 99.4637 64.3277 101.557 66.3783 102.298V102.094H66.2437C65.8325 101.489 65.2164 101.217 64.6695 100.744C63.439 99.5303 62.0715 98.0448 61.1135 96.6958C58.2429 92.9173 55.7142 88.7322 53.4563 84.4139C52.3609 82.3222 51.4029 80.0274 50.517 77.9357C50.1031 77.1253 50.1031 75.9089 49.4211 75.5067C48.3938 76.9889 46.8923 78.2746 46.1365 80.0957C44.8367 82.9967 44.7021 86.5739 44.2239 90.2858C43.9479 90.3535 44.0703 90.2858 43.948 90.4367C41.7622 89.8987 41.0081 87.6688 40.1886 85.7812C38.1375 80.9898 37.7939 73.2969 39.5719 67.7628C40.0501 66.3455 42.104 61.8914 41.284 60.5418C40.8707 59.2594 39.506 58.5183 38.7519 57.5049C37.8632 56.2225 36.9086 54.6039 36.2924 53.1867C34.6524 49.4054 33.8324 45.223 32.0527 41.4439C31.2299 39.6889 29.7954 37.8662 28.6319 36.2482C27.332 34.4255 25.8992 33.1425 24.8725 30.9842C24.5307 30.2282 24.0525 29.0273 24.5994 28.2163C24.7346 27.6766 25.0099 27.4603 25.5546 27.3393C26.4427 26.5828 28.9754 27.5418 29.8641 27.944C32.3929 28.9574 34.5127 29.9014 36.6326 31.317C37.5906 31.9915 38.6173 33.2745 39.8479 33.6134H41.2857C43.4743 34.0849 45.9343 33.7643 47.9832 34.3695C51.6085 35.5188 54.8897 37.2039 57.8324 39.0277C66.7894 44.629 74.1768 52.592 79.1667 62.1088C79.9867 63.6608 80.3286 65.0781 81.0827 66.6978C82.5205 70.0059 84.2985 73.379 85.7313 76.62C87.1691 79.7917 88.536 83.0333 90.5872 85.6647C91.6139 87.082 95.7151 87.823 97.5607 88.5658C98.9292 89.1709 101.047 89.7156 102.281 90.4567C104.605 91.8739 106.93 93.4936 109.117 95.0456C110.209 95.8532 113.631 97.5412 113.834 98.8874L113.842 98.8508ZM44.1055 40.2075C43.1609 40.1993 42.2193 40.3127 41.3041 40.5448V40.6962H41.4387C41.9862 41.7762 42.9442 42.5189 43.6273 43.4641L45.2014 46.7035L45.3366 46.5526C46.294 45.8781 46.7739 44.7981 46.7739 43.1801C46.3633 42.7081 46.2957 42.2344 45.9539 41.7623C45.5433 41.0878 44.6546 40.7489 44.1055 40.2109V40.2075Z" fill="white"/>
</g>
</svg>
