<svg width="143" height="142" viewBox="0 0 143 142" fill="none" xmlns="http://www.w3.org/2000/svg">
<rect width="143" height="142" rx="40" fill="#0C0F17"/>
<path d="M113.112 64.2343L77.7776 28.233L76.4723 26.9031L75.0117 26.3015H67.9883L66.5277 26.9348L65.2224 28.233L29.8878 64.2343L28.5825 65.5641L27.9921 67.0523V74.2083L28.6136 75.6964L29.8878 77.0263L65.2224 113.028L66.5277 114.357L67.9883 114.959H75.0117L76.4723 114.326L77.7776 113.028L113.112 77.0263L114.417 75.6964L115.008 74.2083V67.0523L114.386 65.5641L113.112 64.2343Z" fill="#014847"/>
<path d="M68.3612 106.663V89.375L68.7963 88.9001H74.2037L74.6388 89.375V106.663L74.2037 107.107H68.7963L68.3612 106.663ZM68.3612 51.8856V34.5973L68.7963 34.1541H74.2037L74.6388 34.5973V51.8856L74.2037 52.3605H68.7963L68.3612 51.8856ZM54.0968 93.8396H53.351L49.6217 90.04V89.3117L54.5941 84.2456H58.5098L59.0381 84.8155V88.8051L54.0658 93.8712L54.0968 93.8396ZM49.6217 52.1389V51.3789L53.351 47.5793H54.0968L59.0381 52.6455V56.6351L58.5098 57.1734H54.5941L49.6217 52.1389ZM34.7047 67.4006H53.7861L54.2211 67.8756V73.385L53.7861 73.8283H34.7047L34.2075 73.385V67.8756L34.6736 67.4006H34.7047Z" fill="#32E6E2"/>
<path d="M81.6311 82.0923H76.2237L75.7576 81.6174V68.762C75.7576 66.4506 74.8874 64.6775 72.1837 64.6458C70.7852 64.5825 69.1692 64.6458 67.491 64.7091L67.2113 64.9624V81.6174L66.7763 82.0923H61.3689L60.9338 81.6174V59.643L61.3689 59.168H73.4889C74.6138 59.1639 75.7285 59.386 76.769 59.8217C77.8094 60.2575 78.7552 60.8982 79.5521 61.7072C80.349 62.5161 80.9813 63.4774 81.4127 64.5359C81.8441 65.5944 82.0662 66.7293 82.0662 67.8755V81.6174L81.6 82.0923H81.6311Z" fill="white"/>
<path d="M108.295 73.8598H89.214L88.7789 73.3849V67.8754L89.214 67.4321H108.295L108.761 67.8754V73.3849L108.295 73.8598Z" fill="#32E6E2"/>
</svg>
