<svg width="143" height="142" viewBox="0 0 143 142" fill="none" xmlns="http://www.w3.org/2000/svg">
<g clip-path="url(#clip0_15_251)">
<path d="M109.484 0H33.5156C15.0055 0 0 14.9005 0 33.2812V108.719C0 127.099 15.0055 142 33.5156 142H109.484C127.995 142 143 127.099 143 108.719V33.2812C143 14.9005 127.995 0 109.484 0Z" fill="#242938"/>
<path d="M67.8418 15.5612C67.6016 15.5829 66.8369 15.6589 66.1487 15.7127C50.2813 17.1332 35.4182 25.6355 26.0042 38.7028C20.7629 45.9687 17.4097 54.2102 16.1434 62.9404C15.6959 65.9879 15.6412 66.8881 15.6412 71.0195C15.6412 75.1513 15.6959 76.0516 16.1439 79.0985C19.1793 99.9303 34.1083 117.433 54.3551 123.918C57.9809 125.079 61.8028 125.87 66.1492 126.347C67.8423 126.531 75.1588 126.531 76.8519 126.347C84.3544 125.523 90.71 123.68 96.9786 120.502C97.9394 120.014 98.1254 119.884 97.9941 119.776C97.907 119.71 93.8114 114.256 88.8974 107.663L79.9644 95.6797L68.7702 79.2288C62.6111 70.1847 57.5441 62.7884 57.5 62.7884C57.4564 62.7779 57.4128 70.087 57.391 79.0119C57.3581 94.6386 57.3475 95.2676 57.1508 95.6359C56.8671 96.1673 56.6487 96.3842 56.1895 96.6233C55.8404 96.7963 55.5343 96.8291 53.8853 96.8291H51.9961L51.4934 96.5146C51.1822 96.3209 50.9294 96.0475 50.7617 95.723L50.5326 95.2349L50.555 73.4922L50.5874 51.7385L50.9259 51.3153C51.1007 51.0879 51.4722 50.795 51.7342 50.6541C52.1816 50.4372 52.3564 50.4156 54.2456 50.4156C56.4738 50.4156 56.8447 50.5021 57.424 51.1311C57.5877 51.3047 63.6484 60.3706 70.9001 71.2907C78.2415 82.3439 85.5874 93.3942 92.9377 104.442L101.784 117.748L102.232 117.455C106.195 114.896 110.389 111.252 113.709 107.456C120.775 99.3989 125.329 89.5743 126.858 79.0985C127.305 76.0516 127.36 75.1513 127.36 71.0195C127.36 66.8881 127.305 65.9879 126.858 62.9404C123.822 42.1086 108.893 24.606 88.646 18.1211C85.075 16.9713 81.2748 16.1797 77.0156 15.7027C75.9671 15.594 68.7484 15.4753 67.8423 15.5618L67.8418 15.5612ZM90.7095 49.1137C91.2334 49.3739 91.6597 49.8725 91.8127 50.3928C91.8999 50.6752 91.9216 56.7046 91.8999 70.2923L91.8669 89.7906L88.4053 84.52L84.9325 79.2499V65.0765C84.9325 55.9131 84.9761 50.7617 85.0414 50.5121C85.2163 49.9053 85.5984 49.4282 86.1229 49.1459C86.5703 48.9185 86.7345 48.8963 88.4489 48.8963C90.0654 48.8963 90.3492 48.9185 90.7095 49.1137Z" fill="white"/>
</g>
<defs>
<clipPath id="clip0_15_251">
<rect width="143" height="142" fill="white"/>
</clipPath>
</defs>
</svg>
