<svg width="143" height="142" viewBox="0 0 143 142" fill="none" xmlns="http://www.w3.org/2000/svg">
<g clip-path="url(#clip0_15_90)">
<path d="M109.484 0H33.5156C15.0055 0 0 14.9005 0 33.2812V108.719C0 127.099 15.0055 142 33.5156 142H109.484C127.995 142 143 127.099 143 108.719V33.2812C143 14.9005 127.995 0 109.484 0Z" fill="#242938"/>
<path d="M66.9631 17.2597C69.7108 15.6983 73.2892 15.6911 76.0341 17.2597C89.8437 25.0087 103.658 32.7449 117.465 40.4984C120.062 41.9511 121.799 44.821 121.773 47.7925V94.4112C121.792 97.5058 119.884 100.445 117.144 101.864C103.38 109.57 89.6219 117.285 75.8598 124.992C73.0562 126.584 69.4058 126.461 66.6888 124.738C62.5625 122.363 58.4289 119.999 54.302 117.626C53.4585 117.127 52.5078 116.73 51.9124 115.918C52.4391 115.213 53.3803 115.125 54.1451 114.818C55.8672 114.273 57.4497 113.4 59.0316 112.553C59.4321 112.282 59.9204 112.386 60.3041 112.629C63.8327 114.638 67.3307 116.706 70.871 118.695C71.6262 119.129 72.391 118.553 73.0367 118.196C86.5435 110.615 100.067 103.064 113.572 95.4806C114.073 95.2416 114.349 94.7141 114.308 94.1699C114.318 78.7912 114.311 63.4103 114.313 48.031C114.37 47.4142 114.011 46.8462 113.448 46.5933C99.7319 38.9225 86.0218 31.2406 72.3077 23.5682C72.0702 23.4059 71.7888 23.3187 71.5004 23.3182C71.2121 23.3177 70.9304 23.4039 70.6923 23.5654C56.9777 31.2406 43.2709 38.9303 29.5563 46.5999C28.996 46.8534 28.6201 47.412 28.6866 48.031C28.6894 63.4103 28.6866 78.7912 28.6866 94.1721C28.6628 94.4378 28.7216 94.7043 28.855 94.9358C28.9884 95.1673 29.1901 95.3526 29.4329 95.4668C33.0922 97.5274 36.7566 99.5737 40.4187 101.628C42.4822 102.73 45.0148 103.385 47.2878 102.541C49.2937 101.826 50.6996 99.7933 50.6617 97.6789C50.6807 82.39 50.6522 67.099 50.6756 51.8118C50.6254 51.1334 51.2739 50.5726 51.9386 50.6369C53.6971 50.6247 55.4577 50.6131 57.2162 50.6414C57.9502 50.6247 58.4552 51.3558 58.3647 52.0392C58.3574 67.4251 58.3837 82.811 58.3529 98.1964C58.3574 102.297 56.661 106.759 52.8413 108.765C48.1363 111.186 42.3202 110.672 37.6716 108.352C33.6475 106.357 29.8066 104.003 25.854 101.866C23.1068 100.455 21.2076 97.5041 21.2271 94.4118V47.7925C21.1981 44.7595 23.004 41.8374 25.6819 40.4057C39.444 32.6939 53.2038 24.9754 66.9631 17.2597Z" fill="#81CD39"/>
<path d="M78.9695 49.5529C84.9716 49.1691 91.3971 49.3255 96.7981 52.262C100.98 54.5118 103.299 59.2345 103.372 63.8478C103.255 64.4696 102.6 64.8129 102.002 64.7702C100.261 64.768 98.5186 64.7941 96.7775 64.7586C96.0385 64.7869 95.6095 64.1107 95.5167 63.4623C95.0162 61.2546 93.8035 59.0686 91.7116 58.0036C88.4997 56.4072 84.7761 56.4876 81.2737 56.5209C78.717 56.6552 75.9676 56.8754 73.8014 58.368C72.1385 59.499 71.6335 61.7821 72.2267 63.6209C72.7864 64.9411 74.3209 65.3671 75.5772 65.7598C82.8104 67.6385 90.4754 67.451 97.5707 69.9233C100.508 70.9311 103.382 72.8909 104.387 75.945C105.703 80.0386 105.126 84.9309 102.193 88.2169C99.8146 90.921 96.3507 92.3931 92.8958 93.1924C88.2997 94.2103 83.5299 94.2364 78.8623 93.7843C74.4734 93.2873 69.9058 92.1424 66.5179 89.1732C63.6205 86.6748 62.2056 82.782 62.3458 79.0257C62.3793 78.3911 63.0155 77.9485 63.6277 78.0006C65.3812 77.9868 67.1351 77.9818 68.8886 78.0034C69.5896 77.9535 70.1085 78.5548 70.1448 79.2104C70.4677 81.3132 71.2637 83.5209 73.111 84.7673C76.6748 87.0509 81.1475 86.8945 85.2285 86.9583C88.6097 86.8096 92.4054 86.7647 95.1643 84.5454C96.62 83.2796 97.0512 81.1618 96.6579 79.3402C96.2317 77.8021 94.6112 77.0854 93.2198 76.6167C86.0793 74.3741 78.3282 75.1878 71.257 72.6512C68.3858 71.6439 65.6096 69.7391 64.507 66.8104C62.968 62.6652 63.673 57.5377 66.9134 54.3632C70.0728 51.2042 74.6331 49.9878 78.9695 49.5529Z" fill="#81CD39"/>
</g>
<defs>
<clipPath id="clip0_15_90">
<rect width="143" height="142" fill="white"/>
</clipPath>
</defs>
</svg>
