<svg width="143" height="142" viewBox="0 0 143 142" fill="none" xmlns="http://www.w3.org/2000/svg">
<path d="M109.484 0H33.5156C15.0055 0 0 14.9005 0 33.2812V108.719C0 127.099 15.0055 142 33.5156 142H109.484C127.995 142 143 127.099 143 108.719V33.2812C143 14.9005 127.995 0 109.484 0Z" fill="#242938"/>
<path d="M71.0973 16.0859C42.7363 16.0859 44.5071 28.299 44.5071 28.299L44.5389 40.9515H71.6033V44.7511H33.7888C33.7888 44.7511 15.6406 42.7065 15.6406 71.1226C15.6406 99.5392 31.4807 98.5319 31.4807 98.5319H40.9343V85.3453C40.9343 85.3453 40.4249 69.6161 56.5219 69.6161H83.3645C83.3645 69.6161 98.446 69.8579 98.446 55.142V30.8107C98.446 30.8107 100.736 16.0859 71.0973 16.0859ZM56.1739 24.5943C56.8135 24.5936 57.447 24.7183 58.038 24.961C58.6291 25.2038 59.1661 25.5599 59.6184 26.009C60.0707 26.4581 60.4294 26.9914 60.6738 27.5784C60.9183 28.1653 61.0438 28.7943 61.0431 29.4295C61.0437 30.0646 60.9182 30.6936 60.6737 31.2805C60.4292 31.8673 60.0705 32.4006 59.6182 32.8496C59.166 33.2987 58.6289 33.6548 58.0379 33.8975C57.4469 34.1402 56.8134 34.2648 56.1739 34.2642C55.5343 34.2647 54.901 34.1401 54.31 33.8973C53.719 33.6546 53.1821 33.2985 52.7299 32.8494C52.2776 32.4004 51.919 31.8672 51.6746 31.2803C51.4301 30.6935 51.3046 30.0646 51.3052 29.4295C51.3045 28.7944 51.43 28.1654 51.6744 27.5785C51.9188 26.9916 52.2774 26.4583 52.7297 26.0092C53.1819 25.5601 53.7189 25.204 54.3099 24.9612C54.9009 24.7184 55.5343 24.5937 56.1739 24.5943Z" fill="url(#paint0_linear_15_160)"/>
<path d="M71.9028 126.446C100.264 126.446 98.4929 114.233 98.4929 114.233L98.4611 101.58H71.3967V97.7809H109.211C109.211 97.7809 127.359 99.825 127.359 71.4083C127.359 42.9917 111.519 43.9995 111.519 43.9995H102.066V57.1861C102.066 57.1861 102.575 72.9154 86.4781 72.9154H59.6355C59.6355 72.9154 44.5535 72.673 44.5535 87.3889V111.721C44.5535 111.721 42.2638 126.446 71.9028 126.446ZM86.8261 117.937C86.1866 117.938 85.5531 117.813 84.9621 117.57C84.3711 117.328 83.8341 116.972 83.3818 116.523C82.9295 116.074 82.5709 115.54 82.3264 114.953C82.0819 114.367 81.9563 113.738 81.9569 113.103C81.9562 112.467 82.0817 111.838 82.3262 111.251C82.5707 110.664 82.9293 110.131 83.3816 109.682C83.8339 109.233 84.3709 108.877 84.962 108.634C85.553 108.391 86.1865 108.267 86.8261 108.267C87.4658 108.267 88.0992 108.391 88.6902 108.634C89.2813 108.877 89.8183 109.233 90.2705 109.682C90.7228 110.131 91.0815 110.665 91.326 111.251C91.5704 111.838 91.696 112.467 91.6954 113.103C91.6959 113.738 91.5703 114.367 91.3258 114.953C91.0813 115.54 90.7226 116.073 90.2703 116.522C89.8181 116.972 89.2811 117.328 88.6901 117.57C88.0991 117.813 87.4657 117.938 86.8261 117.937Z" fill="url(#paint1_linear_15_160)"/>
<defs>
<linearGradient id="paint0_linear_15_160" x1="26.3768" y1="26.0126" x2="81.3561" y2="80.8266" gradientUnits="userSpaceOnUse">
<stop stop-color="#387EB8"/>
<stop offset="1" stop-color="#366994"/>
</linearGradient>
<linearGradient id="paint1_linear_15_160" x1="60.3594" y1="60.963" x2="119.42" y2="117.188" gradientUnits="userSpaceOnUse">
<stop stop-color="#FFE052"/>
<stop offset="1" stop-color="#FFC331"/>
</linearGradient>
</defs>
</svg>
