<svg width="143" height="142" viewBox="0 0 143 142" fill="none" xmlns="http://www.w3.org/2000/svg">
<rect width="143" height="142" rx="40" fill="#0C0F17"/>
<path d="M71.5 78.9212C75.9162 78.9212 79.4961 75.1702 79.4961 70.5431C79.4961 65.916 75.9162 62.165 71.5 62.165C67.0839 62.165 63.5039 65.916 63.5039 70.5431C63.5039 75.1702 67.0839 78.9212 71.5 78.9212Z" fill="#00D8FF"/>
<path d="M71.5 89.7524C61.8891 89.996 52.3023 88.6386 43.0978 85.7309C38.8459 84.3186 34.8802 82.0939 31.4011 79.1692C30.0735 78.17 28.9679 76.8818 28.1602 75.3928C27.3525 73.9039 26.8618 72.2494 26.7218 70.5431C26.7218 65.0035 32.5301 59.5745 42.2598 56.0222C51.7104 52.8745 61.5846 51.349 71.5 51.5047C81.2831 51.3615 91.0251 52.8594 100.356 55.9418C104.451 57.3096 108.283 59.4268 111.672 62.1952C112.977 63.1477 114.066 64.3893 114.862 65.8319C115.658 67.2745 116.142 68.8829 116.278 70.5431C116.278 76.3005 109.785 82.135 99.3265 85.7611C90.3002 88.574 80.9157 89.9201 71.5 89.7524ZM71.5 55.5128C62.0138 55.3799 52.5679 56.8302 43.5168 59.8091C34.5612 63.0832 30.5471 67.5605 30.5471 70.533C30.5471 73.643 34.8618 78.5324 44.3356 81.9272C53.1412 84.6949 62.3096 85.9832 71.5 85.7443C80.5081 85.9131 89.4878 84.636 98.1271 81.9574C107.962 78.5425 112.44 73.6463 112.44 70.5431C112.279 69.4782 111.908 68.4599 111.352 67.5525C110.796 66.6452 110.067 65.8685 109.21 65.2716C106.177 62.8156 102.754 60.9392 99.0994 59.7287C90.1726 56.7922 80.8554 55.3689 71.5 55.5128Z" fill="#00D8FF"/>
<path d="M53.3328 112.33C51.8408 112.366 50.3663 111.986 49.0597 111.23C44.4795 108.462 42.8931 100.48 44.8154 89.873C46.9348 79.7224 50.6071 69.9978 55.6901 61.0758C60.4581 52.125 66.5622 44.0311 73.7709 37.1011C76.9475 34.0672 80.612 31.6471 84.5944 29.9529C86.0349 29.2456 87.6062 28.8789 89.197 28.8789C90.7878 28.8789 92.3591 29.2456 93.7996 29.9529C98.5621 32.8282 100.139 41.6353 97.916 52.939C95.7311 62.5388 92.1542 71.7309 87.3099 80.1946C82.7097 89.0397 76.7978 97.0631 69.7952 103.965C66.5033 107.118 62.683 109.605 58.5271 111.301C56.8633 111.948 55.1072 112.296 53.3328 112.33ZM59.0037 63.0665C54.1552 71.6099 50.6355 80.9075 48.5768 90.6103C46.808 100.379 48.5064 106.254 50.9756 107.748C53.5343 109.3 59.7457 107.829 67.2877 100.925C73.9725 94.3132 79.6152 86.633 84.0059 78.1705C88.6467 70.079 92.0778 61.2908 94.1802 52.1113C96.272 41.4711 94.4648 34.9563 91.8997 33.408C90.9383 33.022 89.9109 32.8492 88.8825 32.9006C87.8541 32.9519 86.847 33.2263 85.925 33.7063C82.3801 35.2389 79.1211 37.4148 76.2977 40.1339C69.4104 46.772 63.5797 54.5206 59.0261 63.0866L59.0037 63.0665Z" fill="#00D8FF"/>
<path d="M89.6576 112.373C85.3237 112.373 79.8192 109.625 74.0876 104.461C66.7526 97.4679 60.5453 89.2778 55.7061 80.2081C50.6869 71.4089 47.0437 61.825 44.9146 51.8197C43.9912 47.4179 43.8201 42.8793 44.4092 38.4148C44.5454 36.7586 45.0267 35.154 45.8192 33.7139C46.6117 32.2738 47.696 31.0335 48.9958 30.0803C53.7519 27.1949 61.8215 30.1607 70.0575 37.8216C76.9041 44.5985 82.7182 52.4354 87.2971 61.0591C92.3133 69.6528 95.9947 79.0269 98.2038 88.8308C99.167 93.3942 99.3155 98.105 98.642 102.725C98.4818 104.429 97.9718 106.076 97.147 107.554C96.3222 109.032 95.2021 110.306 93.8636 111.287C92.5783 112.034 91.1267 112.409 89.6576 112.373ZM59.0165 78.1906C63.6588 86.8584 69.5883 94.6967 76.5824 101.411C83.7757 107.896 89.4817 109.29 91.9349 107.779C94.4936 106.22 96.3807 99.8597 94.4361 89.5681C92.3055 80.2079 88.7745 71.26 83.974 63.0564C79.6043 54.8028 74.0548 47.2985 67.518 40.8042C59.7649 33.5924 53.4768 31.9804 50.9148 33.5354C50.1163 34.2153 49.461 35.0613 48.9903 36.02C48.5197 36.9786 48.2438 38.0291 48.1802 39.1052C47.6716 43.0867 47.8373 47.131 48.6695 51.0523C50.7175 60.6206 54.2116 69.7844 59.0197 78.1973L59.0165 78.1906Z" fill="#00D8FF"/>
</svg>
