<svg width="143" height="142" viewBox="0 0 143 142" fill="none" xmlns="http://www.w3.org/2000/svg">
<rect width="143" height="142" rx="40" fill="black"/>
<g clip-path="url(#clip0_16_332)">
<path d="M98.8275 60.5224C96.036 59.6434 94.5951 59.9397 91.6682 59.6189C87.1433 59.1251 85.3403 57.3534 84.5754 52.7949C84.1474 50.25 84.6527 46.5237 83.5602 44.2168C81.4708 39.8176 76.5815 37.8445 71.67 38.9708C67.5226 39.9232 64.072 44.0744 63.8806 48.3359C63.6624 53.2014 66.4301 57.3534 71.1823 58.7867C73.4409 59.4681 75.8396 59.8111 78.1977 59.9849C82.5228 60.3011 82.855 62.709 84.0242 64.6912C84.7622 65.9407 85.4765 67.1718 85.4765 70.8981C85.4765 74.6244 84.7576 75.8548 84.0249 77.1043C82.855 79.0819 81.4118 80.3773 77.0868 80.6973C74.7287 80.8719 72.3246 81.2149 70.0722 81.8971C65.3192 83.3342 62.5514 87.4808 62.7696 92.3471C62.961 96.6086 66.4117 100.76 70.5591 101.712C75.4706 102.842 80.3599 100.865 82.4493 96.4661C83.5464 94.1593 84.1474 91.5455 84.5754 89.0013C85.3449 84.442 87.1479 82.6704 91.6682 82.1758C94.5951 81.8557 97.6247 82.1758 100.368 80.6154C103.266 78.4946 105.856 75.3096 105.856 70.8981C105.856 66.485 103.065 61.8591 98.8275 60.5224Z" fill="#F44250"/>
<path d="M52.4 81.2386C46.6961 81.2386 42.0426 76.5698 42.0426 70.8452C42.0426 65.1214 46.6953 60.4526 52.3992 60.4526C58.1031 60.4526 62.7566 65.1214 62.7566 70.8452C62.7566 76.5645 58.0993 81.2386 52.3992 81.2386H52.4ZM33.3206 102.36C27.6244 102.346 22.9862 97.659 23 91.9298C23.0138 86.2106 27.6849 81.5556 33.3934 81.5739C39.0927 81.5877 43.7316 86.2749 43.714 92.0033C43.7002 97.7179 39.0284 102.374 33.3206 102.36ZM110.275 102.36C104.562 102.391 99.8733 97.7547 99.8404 92.0446C99.809 86.3116 104.43 81.6061 110.12 81.5739C115.833 81.5418 120.522 86.1784 120.554 91.8884C120.586 97.6168 115.965 102.328 110.275 102.36Z" fill="#383838"/>
</g>
<defs>
<clipPath id="clip0_16_332">
<rect width="98" height="98" fill="white" transform="translate(23 22)"/>
</clipPath>
</defs>
</svg>
