<svg width="143" height="142" viewBox="0 0 143 142" fill="none" xmlns="http://www.w3.org/2000/svg">
<path d="M109.484 0H33.5156C15.0055 0 0 14.9005 0 33.2812V108.719C0 127.099 15.0055 142 33.5156 142H109.484C127.995 142 143 127.099 143 108.719V33.2812C143 14.9005 127.995 0 109.484 0Z" fill="url(#paint0_linear_15_206)"/>
<path d="M6.41659 71.5984L34.5161 82.9051V90.82L1.25183 75.5156V70.8717L6.41659 71.5984ZM34.5161 62.3113L6.45737 73.7789L1.25239 74.3446V69.6603L34.5155 54.3964L34.5161 62.3113ZM134.828 73.2136L105.916 62.0284V54.3154L140.643 69.5793V74.3041L134.828 73.2136ZM105.916 83.0665L134.91 71.6389L140.643 70.7908V75.4751L105.916 90.7795V83.0665Z" fill="white"/>
<path fill-rule="evenodd" clip-rule="evenodd" d="M98.3555 33.8908C98.1947 36.4235 97.0456 39.0682 97.3657 41.5305C99.3727 45.055 103.79 45.6169 107.434 45.8587C109.959 46.3069 109.927 44.6467 109.758 42.7819L109.789 33.8381C105.978 33.852 102.165 33.8009 98.3555 33.8908ZM68.3026 40.9741C62.0978 42.0203 55.808 44.9646 50.646 48.509C46.4912 51.7201 54.2127 54.8319 57.014 55.3522C62.6502 55.4204 67.6491 51.6452 71.3514 47.7269C72.5602 46.0795 74.0701 43.5573 72.5513 41.6475C71.3917 40.6491 69.7053 40.8909 68.3026 40.9741ZM81.5061 49.9351C76.4045 50.9003 71.5503 52.9881 67.2553 55.8952C64.1065 56.877 61.5112 60.31 65.413 62.0301C69.5103 65.2722 74.2589 64.4779 78.0322 62.2891C81.4877 60.2495 85.2202 57.7329 86.8189 53.8934C88.3288 49.6872 84.4331 49.5313 81.5061 49.9351ZM95.9787 66.2335C95.0285 70.174 91.0324 71.9656 88.9064 75.088C87.168 77.3655 87.9729 80.0485 89.952 81.8413C90.9156 83.8254 92.6048 84.9342 94.4163 83.2108C99.0817 80.0613 100.372 73.9265 100.178 68.6109C100.523 66.4154 97.9863 68.4001 95.9787 66.2335ZM78.2249 73.6347C72.0296 74.6875 65.8331 77.685 60.6689 81.2239C56.6599 84.4306 64.2104 87.4248 67.0346 87.8996C72.7753 87.9079 77.8959 84.2342 81.5257 80.0619C82.7881 78.405 84.3181 75.1873 81.8184 73.8699C80.7006 73.3995 79.403 73.5376 78.2249 73.6347Z" fill="#B956A6"/>
<path fill-rule="evenodd" clip-rule="evenodd" d="M50.646 48.509C45.8812 50.4022 41.2851 52.7008 36.7459 55.1082C35.9025 58.2227 36.5789 62.0795 36.3605 65.4947C36.3438 79.5372 36.3516 93.5802 36.3493 107.623H46.8621C48.9847 105.638 51.6436 104.185 53.9495 102.383C62.8278 96.0602 71.7033 89.7129 80.5699 83.4078C81.2223 83.699 80.8045 79.5965 79.3734 82.4459C75.9821 85.6149 71.481 88.2213 66.7167 87.9667C64.0131 87.0837 59.655 85.5855 59.6276 82.2956C61.5308 80.0708 56.1163 83.4605 54.6349 83.9458C49.8187 86.2422 45.1165 88.8065 40.2902 91.0602C41.4499 89.8233 43.6194 88.6701 45.1578 87.4431C56.147 79.6098 67.1334 71.746 78.1489 63.9188C80.2677 62.4417 82.3144 60.8303 84.4985 59.4497C84.6979 60.2146 85.0721 55.7926 83.4477 58.5151C80.1364 61.7744 75.6699 64.2006 70.9593 64.2339C68.3098 63.4351 62.6669 61.5253 63.9232 58.1284C64.536 56.9364 58.2323 60.6695 61.0174 58.5644C63.9819 56.4133 66.9698 54.3005 69.9571 52.1716C71.4659 52.059 71.1447 46.4939 69.0947 50.0838C65.6509 53.0885 61.1263 55.8376 56.3833 55.1858C53.7188 54.4242 50.522 52.9493 49.5534 50.1825C49.2328 49.518 51.3476 48.4824 50.646 48.509ZM70.3861 51.9442C70.1219 52.6947 70.8649 51.6702 70.3861 51.9442V51.9442Z" fill="#FCCC44"/>
<path fill-rule="evenodd" clip-rule="evenodd" d="M100.49 44.7909C99.0029 51.8443 97.3769 59.2267 95.9787 66.2335C99.9961 71.2612 100.385 63.0573 101.088 60.7376C102.224 55.8891 103.569 52.2282 103.711 47.2083C104.013 45.4948 101.985 44.4576 100.49 44.7909ZM105.099 50.3223C104.974 51.045 105.283 50.4582 105.099 50.3223V50.3223ZM100.413 66.1386C100.606 65.7248 100.606 66.5519 100.413 66.1386V66.1386Z" fill="#62777F"/>
<path fill-rule="evenodd" clip-rule="evenodd" d="M103.125 45.5898C104.379 52.58 100.227 61.0723 98.8688 67.6631C101.952 65.4099 104.335 55.187 104.944 51.1855C105.101 50.7279 105.294 49.5764 105.336 49.5348C105.53 48.5635 107.335 46.9178 107.434 45.8589C108.486 45.1222 102.267 45.0041 103.125 45.5898ZM100.569 66.1388C100.375 65.725 100.375 66.552 100.569 66.1388V66.1388Z" fill="#4E5E67"/>
<path fill-rule="evenodd" clip-rule="evenodd" d="M50.7505 48.6255C49.0121 50.3539 49.6646 49.9318 50.9583 48.4946L50.7505 48.6255ZM69.5528 49.4814C67.539 52.4862 60.2773 54.9989 59.3629 55.1936C63.7311 54.381 67.8027 51.6824 70.6677 48.5218C70.2125 48.7232 69.9421 49.1963 69.5528 49.4814ZM49.5562 50.4571C50.6416 53.0486 54.588 54.7704 56.5057 55.172C53.8876 54.3344 50.8058 52.8489 49.5562 50.4571ZM70.2298 51.9559C69.6818 52.5982 67.7301 53.5589 66.7011 54.5019C64.4941 56.1183 62.2112 57.6203 60.0293 59.2772C61.4185 59.2178 65.4895 56.1981 63.4026 59.2622C65.1711 62.2847 69.0215 64.3864 72.5323 64.1945C77.1686 63.4717 81.4441 60.9263 84.5175 57.3863C80.7866 61.0522 75.8543 64.5024 70.3962 64.027C67.7546 63.4213 60.5365 59.7187 65.365 57.1233C67.0676 55.7327 70.003 55.0044 70.3353 52.5605C70.2655 52.2554 70.8381 51.9575 70.2298 51.9559ZM57.014 55.3522C58.7708 55.1248 58.7708 55.5802 57.014 55.3522V55.3522ZM84.3868 59.5263C77.4161 64.3487 70.5465 69.3598 63.6361 74.2687C55.8046 79.8345 48.0067 85.4207 40.1774 90.982C43.1212 89.9963 46.0706 88.0716 48.9948 86.742C53.0223 84.6264 57.2687 82.9551 61.037 80.3853C68.4875 76.0299 76.367 71.8803 82.0977 65.2168C83.3483 63.7602 84.6024 61.4155 84.6582 59.8385C84.4778 59.889 84.6147 59.2079 84.3868 59.5263ZM60.6689 81.224C59.4148 82.6312 58.9054 83.6369 60.2069 81.8474C60.184 82.0549 61.2632 80.7364 60.6689 81.224ZM79.7482 81.8974C76.4447 85.3564 71.5587 87.8514 66.9743 88.0194C72.2742 88.0577 77.0558 84.9337 80.6464 81.2484C80.4107 80.9655 79.9331 81.9073 79.7482 81.8974ZM80.7576 82.9845C69.6589 91.0075 58.177 99.3295 47.0409 107.324C48.7949 107.87 52.6151 108.126 54.3584 105.896C58.0675 103.354 62.2374 101.486 65.9588 98.9096C71.3475 95.4373 77.1172 91.6421 80.1778 85.8062C80.3236 85.0236 81.4067 83.6158 80.7576 82.9845ZM59.6355 83.4937C60.1505 85.6526 66.5889 88.1304 65.8906 87.6561C63.5166 86.8296 61.1616 85.5417 59.6355 83.4937Z" fill="#DC9624"/>
<defs>
<linearGradient id="paint0_linear_15_206" x1="0" y1="142" x2="141.997" y2="-0.996479" gradientUnits="userSpaceOnUse">
<stop stop-color="#DB7093"/>
<stop offset="1" stop-color="#F3B661"/>
</linearGradient>
</defs>
</svg>
