<svg width="143" height="142" viewBox="0 0 143 142" fill="none" xmlns="http://www.w3.org/2000/svg">
<g clip-path="url(#clip0_15_133)">
<path d="M109.484 0H33.5156C15.0055 0 0 14.9005 0 33.2812V108.719C0 127.099 15.0055 142 33.5156 142H109.484C127.995 142 143 127.099 143 108.719V33.2812C143 14.9005 127.995 0 109.484 0Z" fill="#242938"/>
<path fill-rule="evenodd" clip-rule="evenodd" d="M46.3633 61.0156C49.7148 47.7031 58.0943 41.0469 71.5 41.0469C91.6094 41.0469 94.123 56.0234 104.178 58.5195C110.881 60.1841 116.746 57.6881 121.773 51.0312C118.422 64.3432 110.042 71 96.6367 71C76.5273 71 74.0137 56.0234 63.959 53.5273C57.2553 51.8633 51.3906 54.3594 46.3633 61.0156ZM21.2266 90.9688C24.5781 77.6568 32.957 71 46.3633 71C66.4727 71 68.9863 85.9766 79.041 88.4727C85.7447 90.1373 91.6094 87.6412 96.6367 80.9844C93.2857 94.2963 84.9057 100.953 71.5 100.953C51.3906 100.953 48.877 85.9766 38.8223 83.4805C32.1191 81.8159 26.2539 84.3119 21.2266 90.9688Z" fill="url(#paint0_linear_15_133)"/>
</g>
<defs>
<linearGradient id="paint0_linear_15_133" x1="48.3184" y1="41.0469" x2="90.9224" y2="103.174" gradientUnits="userSpaceOnUse">
<stop stop-color="#32B1C1"/>
<stop offset="1" stop-color="#14C6B7"/>
</linearGradient>
<clipPath id="clip0_15_133">
<rect width="143" height="142" fill="white"/>
</clipPath>
</defs>
</svg>
