<svg width="143" height="142" viewBox="0 0 143 142" fill="none" xmlns="http://www.w3.org/2000/svg">
<g clip-path="url(#clip0_15_170)">
<path d="M109.484 0H33.5156C15.0055 0 0 14.9005 0 33.2812V108.719C0 127.099 15.0055 142 33.5156 142H109.484C127.995 142 143 127.099 143 108.719V33.2812C143 14.9005 127.995 0 109.484 0Z" fill="#242938"/>
<path d="M126.85 31.951L74.436 125.02C73.3534 126.942 70.5733 126.953 69.4751 125.041L16.0216 31.9593C14.8251 29.8759 16.6193 27.3521 18.9978 27.7742L71.4676 37.0874C71.8024 37.1467 72.1452 37.1459 72.4798 37.0852L123.853 27.787C126.223 27.3582 128.025 29.8626 126.85 31.951Z" fill="url(#paint0_linear_15_170)"/>
<path d="M96.4619 15.559L57.6742 23.1055C57.3643 23.1657 57.0832 23.3265 56.8754 23.5627C56.6676 23.7989 56.5448 24.097 56.5263 24.4102L54.14 64.4259C54.127 64.6453 54.1656 64.8646 54.2529 65.0666C54.3401 65.2686 54.4735 65.4476 54.6426 65.5895C54.8116 65.7313 55.0116 65.8321 55.2267 65.8838C55.4418 65.9356 55.6661 65.9368 55.8817 65.8875L66.681 63.413C67.6915 63.1817 68.6043 64.0653 68.397 65.0743L65.1885 80.6754C64.9723 81.7255 65.9655 82.6229 66.9977 82.3118L73.6679 80.2994C74.7019 79.9876 75.6956 80.8879 75.4766 81.939L70.3778 106.445C70.0588 107.978 72.1122 108.814 72.9685 107.499L73.5405 106.621L105.147 43.9862C105.676 42.9378 104.764 41.7419 103.604 41.9638L92.488 44.0944C91.4435 44.294 90.5548 43.3283 90.8491 42.3138L98.1047 17.3384C98.3996 16.3223 97.5076 15.356 96.4619 15.559Z" fill="url(#paint1_linear_15_170)"/>
</g>
<defs>
<linearGradient id="paint0_linear_15_170" x1="14.7167" y1="24.4478" x2="79.3574" y2="112.853" gradientUnits="userSpaceOnUse">
<stop stop-color="#41D1FF"/>
<stop offset="1" stop-color="#BD34FE"/>
</linearGradient>
<linearGradient id="paint1_linear_15_170" x1="68.4562" y1="17.6075" x2="80.0954" y2="98.0144" gradientUnits="userSpaceOnUse">
<stop stop-color="#FFEA83"/>
<stop offset="0.083" stop-color="#FFDD35"/>
<stop offset="1" stop-color="#FFA800"/>
</linearGradient>
<clipPath id="clip0_15_170">
<rect width="143" height="142" rx="30" fill="white"/>
</clipPath>
</defs>
</svg>
