<svg width="143" height="142" viewBox="0 0 143 142" fill="none" xmlns="http://www.w3.org/2000/svg">
<path d="M119.26 0H23.7402C10.6289 0 0 10.8252 0 24.1787V117.821C0 131.175 10.6289 142 23.7402 142H119.26C132.371 142 143 131.175 143 117.821V24.1787C143 10.8252 132.371 0 119.26 0Z" fill="#470137"/>
<path d="M75.3555 44.1271L58.9025 72.0465L76.5051 101.693C76.6184 101.901 76.6498 102.144 76.5937 102.375C76.5664 102.474 76.5077 102.498 76.4175 102.502L76.3176 102.5L76.1961 102.497C76.1301 102.497 76.0565 102.5 75.9746 102.514H63.2832L63.0339 102.51C62.3499 102.491 61.857 102.391 61.5567 101.875C60.3824 99.5229 59.2029 97.1737 58.0181 94.8272C56.9584 92.7343 55.8698 90.657 54.7526 88.596L54.2592 87.6883C52.9229 85.2467 51.6108 82.7913 50.323 80.3223H50.2344C49.0451 82.7654 47.8213 85.1907 46.5635 87.5973C45.2948 90.0226 44.0417 92.4331 42.8039 94.8272C41.5655 97.2232 40.2976 99.603 39.0007 101.966C38.7921 102.448 38.4454 102.549 37.9628 102.565L37.7619 102.568H25.6438L25.5913 102.57L25.4182 102.586C25.3219 102.591 25.2642 102.57 25.2457 102.421C25.2124 102.199 25.2597 101.973 25.3785 101.784L42.4501 72.9558L25.8205 44.0371C25.6438 43.7956 25.6145 43.5986 25.7319 43.4461C25.7972 43.3684 25.8791 43.3074 25.9713 43.2679C26.0635 43.2284 26.1633 43.2114 26.2629 43.2184H38.7349C39.0069 43.2031 39.2788 43.2497 39.5312 43.355C39.7424 43.4784 39.9242 43.6495 40.0617 43.8555C41.1233 46.2808 42.3028 48.7061 43.6003 51.1304C44.8877 53.5394 46.1998 55.9343 47.5364 58.3148C48.8526 60.6584 50.0772 63.0551 51.2073 65.4992H51.2959C52.4541 63.0557 53.6484 60.6304 54.8783 58.2242C56.0861 55.8598 57.3249 53.4795 58.593 51.0849C59.845 48.721 61.0687 46.3413 62.2639 43.9465C62.3319 43.722 62.4534 43.5187 62.6177 43.355C62.8362 43.2413 63.0817 43.1939 63.3254 43.2184H74.913C75.0196 43.1911 75.1318 43.2001 75.233 43.2441C75.3341 43.288 75.4186 43.3645 75.4738 43.4621C75.529 43.5597 75.5518 43.6731 75.5389 43.7852C75.5261 43.8973 75.4781 44.002 75.4023 44.0837L75.356 44.1282L75.3555 44.1271ZM101.351 103.687L100.741 103.694C96.6699 103.758 92.6357 102.888 88.9323 101.148C85.4822 99.5062 82.5982 96.8265 80.6617 93.4631C78.7091 90.129 77.7068 85.9742 77.6563 81.0001L77.6542 80.595C77.6211 76.4212 78.6586 72.3121 80.6623 68.6818C82.6675 65.0886 85.5908 62.1282 89.1156 60.1211L89.419 59.9516C93.2511 57.7688 97.8806 56.6774 103.306 56.6774L103.543 56.6801L103.814 56.6891L104.118 56.7028L104.456 56.723L105.024 56.7643L105.666 56.8172L106.137 56.8596V38.9439C106.137 38.5203 106.314 38.3074 106.667 38.3074H117.813C117.885 38.2967 117.958 38.3035 118.027 38.3272C118.097 38.3508 118.159 38.3907 118.211 38.4436C118.262 38.4966 118.301 38.5611 118.324 38.6321C118.347 38.7032 118.354 38.7787 118.343 38.8528V92.5994C118.343 93.5017 118.377 94.474 118.445 95.514L118.61 97.8732L118.698 99.2378C118.709 99.4268 118.664 99.6148 118.569 99.7771C118.474 99.9394 118.334 100.069 118.167 100.148C115.291 101.38 112.297 102.295 109.233 102.875C106.632 103.369 103.996 103.64 101.351 103.687ZM106.137 92.4172V67.5904C105.659 67.4573 105.17 67.3661 104.677 67.3176C104.075 67.2553 103.47 67.2249 102.864 67.2266C100.717 67.2047 98.5963 67.7033 96.6722 68.6818C94.7982 69.6395 93.198 71.081 92.0283 72.8652C90.8607 74.6212 90.2565 76.9141 90.2168 79.744L90.2148 80.0496C90.1717 82.0318 90.4866 84.0051 91.1435 85.8693C91.6782 87.3717 92.5234 88.737 93.6209 89.8711C94.6713 90.9144 95.9429 91.6926 97.3356 92.1445C98.8069 92.6343 100.345 92.8801 101.891 92.8726C102.716 92.8726 103.483 92.8419 104.191 92.781C104.756 92.7373 105.315 92.6416 105.864 92.495L106.137 92.4172Z" fill="#FF61F6"/>
</svg>
